<?xml version="1.0" encoding="UTF-8"?>
<!DOCTYPE svg PUBLIC "-//W3C//DTD SVG 1.1//EN" "http://www.w3.org/Graphics/SVG/1.1/DTD/svg11.dtd">
<!-- Creator: CorelDRAW 2019 (64 Bit Versão de avaliação) -->
<svg xmlns="http://www.w3.org/2000/svg" xml:space="preserve" width="217.874mm" height="48.5545mm" version="1.1" style="shape-rendering:geometricPrecision; text-rendering:geometricPrecision; image-rendering:optimizeQuality; fill-rule:evenodd; clip-rule:evenodd"
viewBox="0 0 1274.14 283.95"
 xmlns:xlink="http://www.w3.org/1999/xlink">
 <defs>
  <style type="text/css">
   <![CDATA[
    .fil0 {fill:#FFCC29;fill-rule:nonzero}
   ]]>
  </style>
    <clipPath id="id0">
     <path d="M-0 0l1274.14 0 0 283.95 -1274.14 0 0 -283.95z"/>
    </clipPath>
 </defs>
 <g id="Camada_x0020_1">
  <metadata id="CorelCorpID_0Corel-Layer"/>
  <g id="_2273509759216">
   <g style="clip-path:url(#id0)">
    <image x="-0" y="0" width="1274.14" height="283.95" xlink:href="data_Images\data_ImgID1.png"/>
   </g>
  </g>
  <g id="_2273497898208">
   <g>
    <path class="fil0" d="M136.79 142.97c-5.87,3.35 -8.8,8.48 -8.8,15.45l0 1.26 0 16.34c0.21,1.26 0.37,2.57 0.47,3.93 0.1,1.36 0.16,2.78 0.16,4.24l0 20.48c-0.21,6.7 -1.62,12.94 -4.24,18.7 -2.62,5.76 -6.13,10.84 -10.53,15.14 -4.4,4.29 -9.53,7.7 -15.4,10.21 -5.87,2.51 -12.05,3.77 -18.54,3.77l-0.63 0c-6.7,0 -13.04,-1.31 -19.01,-3.93 -5.97,-2.62 -11.16,-6.13 -15.56,-10.53 -4.4,-4.4 -7.86,-9.58 -10.37,-15.56 -2.51,-5.97 -3.77,-12.31 -3.77,-19.01 0,-3.56 -0.37,-6.23 -1.1,-8.01 -0.73,-1.78 -1.52,-3.14 -2.36,-4.09 -0.84,-0.94 -1.62,-1.83 -2.36,-2.67 -0.73,-0.84 -1.1,-2.2 -1.1,-4.08l16.34 0c3.35,0 5.03,1.68 5.03,5.03 0,-1.47 0.52,-2.67 1.57,-3.61 1.05,-0.94 2.2,-1.41 3.46,-1.41l16.66 0c0,1.88 -0.37,3.25 -1.1,4.08 -0.73,0.84 -1.52,1.73 -2.36,2.67 -0.84,0.94 -1.62,2.3 -2.36,4.09 -0.73,1.78 -1.1,4.56 -1.1,8.33 0,2.72 0.1,6.02 0.31,9.9 0.21,3.88 0.94,7.59 2.2,11.16 1.26,3.56 3.25,6.6 5.97,9.11 2.72,2.51 6.49,3.77 11.31,3.77l0.31 0c4.82,0 8.54,-1.26 11.16,-3.77 2.62,-2.51 4.56,-5.6 5.81,-9.27 1.26,-3.67 1.99,-7.44 2.2,-11.31 0.21,-3.88 0.31,-7.18 0.31,-9.9l0 -19.17c0,-2.72 -0.11,-6.02 -0.31,-9.9 -0.21,-3.87 -0.89,-7.59 -2.04,-11.16 -1.15,-3.56 -3.04,-6.65 -5.66,-9.27 -2.62,-2.62 -6.34,-4.03 -11.16,-4.24l-0.63 0c-2.1,0 -3.82,-0.68 -5.18,-2.1 -1.36,-1.36 -2.04,-3.14 -2.04,-5.29 0,-2.15 0.68,-3.93 2.04,-5.29 1.36,-1.41 3.09,-2.1 5.18,-2.1 5.03,0 8.85,-1.31 11.47,-3.93 2.62,-2.62 4.56,-5.66 5.81,-9.22 1.26,-3.56 1.99,-7.33 2.2,-11.26 0.21,-3.98 0.31,-7.33 0.31,-10.06l0 -19.06c0,-2.72 -0.11,-6.02 -0.31,-9.9 -0.21,-3.82 -0.94,-7.59 -2.2,-11.26 -1.26,-3.67 -3.19,-6.7 -5.81,-9.22 -2.62,-2.51 -6.44,-3.77 -11.47,-3.77l-0.31 0c-4.82,0 -8.54,1.26 -11.16,3.77 -2.62,2.51 -4.56,5.55 -5.81,9.11 -1.26,3.56 -1.99,7.28 -2.2,11.16 -0.21,3.88 -0.31,7.18 -0.31,9.9 0,3.77 0.37,6.55 1.1,8.33 0.73,1.78 1.52,3.14 2.36,4.08 0.84,0.94 1.62,1.83 2.36,2.67 0.73,0.84 1.1,2.2 1.1,4.08l-16.66 0c-1.26,0 -2.41,-0.47 -3.46,-1.41 -1.05,-0.94 -1.57,-2.15 -1.57,-3.61 0,3.35 -1.67,5.03 -5.03,5.03l-16.34 0c0,-1.89 0.37,-3.25 1.1,-4.08 0.73,-0.84 1.52,-1.73 2.36,-2.67 0.84,-0.94 1.62,-2.3 2.36,-4.08 0.73,-1.78 1.1,-4.45 1.1,-8.01 0,-6.7 1.26,-13.04 3.77,-19.01 2.51,-5.97 5.97,-11.16 10.37,-15.55 4.4,-4.4 9.58,-7.91 15.56,-10.53 5.97,-2.62 12.31,-3.93 19.01,-3.93l0.31 0 0.31 0c6.7,0 12.99,1.26 18.85,3.77 5.87,2.51 11,5.92 15.4,10.21 4.4,4.24 7.86,9.32 10.37,15.19 2.51,5.87 3.88,12.05 4.09,18.54l0 20.37c0,8.8 -2.1,16.87 -6.28,24.14 -4.19,7.33 -9.85,13.2 -16.97,17.6 1.47,1.05 2.88,2.04 4.24,2.98 1.36,0.94 2.67,2.04 3.93,3.3 1.68,-2.3 3.77,-4.19 6.29,-5.66 2.51,-1.47 5.24,-2.2 8.17,-2.2 2.93,0 5.87,0.73 8.8,2.2zm-24.2 -52.64l0 1.26 0 2.51 0 1.26 0 1.57 0 2.51 0 1.26 0 1.26c-0.21,0.42 -0.31,1.15 -0.31,2.2 0,2.09 -0.1,3.56 -0.31,4.4l0 1.89c0,0.42 -0.1,0.73 -0.31,0.94l0 0.94c0,0.42 -0.05,0.89 -0.16,1.41 -0.11,0.52 -0.16,0.99 -0.16,1.41 0,0.21 -0.05,0.37 -0.16,0.47 -0.11,0.1 -0.16,0.26 -0.16,0.47l0 0.31c0,0.21 -0.11,0.31 -0.31,0.31l0 0.63 0.31 -0.31 0.31 -0.31c0,0 0.1,-0.1 0.31,-0.31 0,-0.21 0.21,-0.52 0.63,-0.94 0.16,-0.63 0.58,-1.57 1.15,-2.83 0,-0.21 0.21,-0.73 0.58,-1.57 0,-0.42 0.21,-1.05 0.58,-1.89 0,-0.42 0.05,-0.79 0.16,-1.1 0.11,-0.31 0.16,-0.68 0.16,-1.1 0.37,-0.84 0.58,-1.57 0.58,-2.2 0.21,-0.84 0.37,-1.68 0.47,-2.51 0.05,-0.84 0.21,-1.68 0.42,-2.51 0,-1.26 0.11,-2.09 0.32,-2.51l0 -2.83c0.21,-1.05 0.31,-1.99 0.31,-2.83 0,-0.84 0,-1.78 0,-2.83l0 -2.83c0,-1.05 -0.11,-1.89 -0.31,-2.51l0 -2.83c0,-0.63 -0.11,-1.05 -0.32,-1.26l0 -1.26c-0.21,-1.05 -0.37,-1.94 -0.42,-2.67 -0.1,-0.73 -0.26,-1.52 -0.47,-2.36 0,-0.42 -0.05,-0.79 -0.16,-1.1 -0.11,-0.31 -0.16,-0.68 -0.16,-1.1 -0.16,-0.42 -0.26,-0.84 -0.26,-1.26 -0.21,-0.21 -0.31,-0.52 -0.31,-0.94 -0.37,-0.84 -0.58,-1.47 -0.58,-1.88 -0.42,-0.84 -0.58,-1.47 -0.58,-1.89 -0.21,-0.21 -0.37,-0.42 -0.47,-0.63 -0.1,-0.21 -0.26,-0.42 -0.42,-0.63 0,-0.42 -0.21,-0.84 -0.63,-1.26 0,-0.21 -0.05,-0.37 -0.16,-0.47 -0.05,-0.11 -0.1,-0.26 -0.1,-0.47 -0.42,-0.42 -0.63,-0.63 -0.63,-0.63 -0.21,-0.21 -0.31,-0.42 -0.31,-0.63l0 0.63c0.21,0.21 0.31,0.52 0.31,0.94 0,0.42 0.1,0.73 0.31,0.94l0 1.26c0.21,0.21 0.31,0.73 0.31,1.57l0 0.94c0.21,0 0.31,0.21 0.31,0.63l0 1.89c0.21,1.05 0.31,2.51 0.31,4.4 0.21,1.05 0.31,2.72 0.31,5.03l0 5.03 0 5.34 0 1.57zm4.09 109.36c0.21,-1.05 0.31,-1.99 0.31,-2.83 0,-0.84 0,-1.78 0,-2.83l0 -2.83c0,-1.05 -0.11,-1.89 -0.31,-2.51l0 -2.83c0,-0.63 -0.11,-1.05 -0.32,-1.26l0 -1.26c-0.21,-1.05 -0.37,-1.94 -0.42,-2.67 -0.1,-0.73 -0.26,-1.52 -0.47,-2.36 0,-0.42 -0.05,-0.79 -0.16,-1.1 -0.11,-0.31 -0.16,-0.68 -0.16,-1.1 -0.16,-0.42 -0.26,-0.84 -0.26,-1.26 -0.21,-0.21 -0.31,-0.52 -0.31,-0.94 -0.37,-0.84 -0.58,-1.47 -0.58,-1.89 -0.42,-0.84 -0.58,-1.47 -0.58,-1.89 -0.21,-0.21 -0.37,-0.42 -0.47,-0.63 -0.1,-0.21 -0.26,-0.42 -0.42,-0.63 0,-0.42 -0.21,-0.84 -0.63,-1.26 0,-0.21 -0.05,-0.37 -0.16,-0.47 -0.05,-0.11 -0.1,-0.26 -0.1,-0.47 -0.42,-0.42 -0.63,-0.63 -0.63,-0.63 -0.21,-0.21 -0.31,-0.42 -0.31,-0.63l0 0.63c0.21,0.21 0.31,0.52 0.31,0.94 0,0.42 0.1,0.73 0.31,0.94l0 1.26c0.21,0.42 0.31,0.94 0.31,1.57l0 0.94c0.21,0 0.31,0.21 0.31,0.63l0 2.2c0.21,0.84 0.31,2.2 0.31,4.09 0.21,1.05 0.31,2.72 0.31,5.03l0 5.03 0 5.34 0 1.57 0 1.26 0 2.51 0 1.57 0 1.26 0 2.51 0 1.26 0 1.26c-0.21,0.42 -0.31,1.15 -0.31,2.2 0,2.1 -0.1,3.56 -0.31,4.4l0 1.89c0,0.42 -0.1,0.73 -0.31,0.94l0 0.94c0,0.42 -0.05,0.89 -0.16,1.41 -0.11,0.52 -0.16,0.99 -0.16,1.41 0,0.21 -0.05,0.37 -0.16,0.47 -0.11,0.1 -0.16,0.26 -0.16,0.47l0 0.31c0,0.21 -0.11,0.31 -0.31,0.31l0 0.94c0,0 0.11,-0.21 0.31,-0.63l0.26 -0.31c0,0 0.1,-0.1 0.31,-0.31 0,-0.21 0.21,-0.52 0.58,-0.94 0.21,-0.63 0.63,-1.57 1.2,-2.83 0,-0.21 0.21,-0.73 0.63,-1.57 0,-0.42 0.16,-1.05 0.58,-1.89 0,-0.42 0.05,-0.79 0.16,-1.1 0.11,-0.31 0.16,-0.68 0.16,-1.1 0.37,-0.84 0.58,-1.57 0.58,-2.2 0.21,-0.84 0.37,-1.68 0.42,-2.51 0.11,-0.84 0.26,-1.68 0.47,-2.51 0,-1.26 0.11,-2.09 0.32,-2.51l0 -2.83zm122.24 -59.08l0 -10.68 0 -49.97c-0.21,-6.49 -1.47,-12.67 -3.77,-18.54 -2.3,-5.87 -5.5,-10.95 -9.58,-15.24 -4.09,-4.29 -8.96,-7.7 -14.61,-10.21 -5.66,-2.51 -11.84,-3.77 -18.54,-3.77 -6.7,0 -12.83,1.26 -18.38,3.77 -5.55,2.51 -10.37,5.92 -14.46,10.21 -4.09,4.29 -7.28,9.38 -9.58,15.24 -2.3,5.87 -3.56,12.05 -3.77,18.54l0 49.97 0 10.68c-2.93,0 -5.87,0.73 -8.8,2.2 5.24,2.93 8.17,7.65 8.8,14.14l0 47.45c0.21,6.7 1.47,12.94 3.77,18.7 2.31,5.76 5.5,10.79 9.58,15.08 4.08,4.29 8.9,7.7 14.46,10.21 5.55,2.51 11.68,3.77 18.38,3.77 6.7,0 12.88,-1.26 18.54,-3.77 5.66,-2.51 10.53,-5.92 14.61,-10.21 4.08,-4.29 7.28,-9.32 9.58,-15.08 2.3,-5.76 3.56,-11.99 3.77,-18.7l0 -47.45c0.42,-6.28 3.35,-11 8.8,-14.14 -1.47,-0.63 -2.88,-1.15 -4.24,-1.57 -1.36,-0.42 -2.88,-0.63 -4.56,-0.63zm-75.73 13.51c0,1.47 -0.1,2.51 -0.31,3.14l0 3.14 0 5.97c0,1.89 -0.05,3.77 -0.16,5.66 -0.1,1.89 -0.16,3.67 -0.16,5.34 0,1.89 -0.05,3.67 -0.16,5.34 -0.11,1.68 -0.16,3.25 -0.16,4.71 -0.21,1.68 -0.31,3.19 -0.31,4.56 0,1.36 -0.11,2.78 -0.31,4.24 0,1.26 -0.05,2.41 -0.16,3.46 -0.1,1.05 -0.16,1.99 -0.16,2.83 0,1.05 -0.05,1.94 -0.16,2.67 -0.1,0.73 -0.16,1.31 -0.16,1.73l0 1.57c-0.21,0 -0.31,-0.1 -0.31,-0.31l0 -1.26c0,-0.42 -0.05,-1 -0.16,-1.73 -0.1,-0.73 -0.16,-1.62 -0.16,-2.67 0,-0.84 -0.05,-1.78 -0.16,-2.83 -0.1,-1.05 -0.16,-2.2 -0.16,-3.46 -0.21,-1.47 -0.31,-2.88 -0.31,-4.24 0,-1.36 -0.11,-2.88 -0.31,-4.56 0,-1.47 -0.05,-3.04 -0.16,-4.71 -0.11,-1.68 -0.16,-3.46 -0.16,-5.34 0,-1.68 -0.05,-3.46 -0.16,-5.34 -0.11,-1.89 -0.16,-3.77 -0.16,-5.66l0 -5.97 0 -3.14c-0.21,-0.63 -0.31,-1.68 -0.31,-3.14l0 -12.26 0 -12.26c0,-1.05 0.05,-2.1 0.16,-3.14 0.11,-1.05 0.16,-2.09 0.16,-3.14l0 -5.97c0.21,-3.77 0.31,-7.49 0.31,-11.16 0,-3.67 0.1,-6.97 0.31,-9.9 0.21,-1.68 0.31,-3.2 0.31,-4.56 0,-1.36 0.1,-2.67 0.31,-3.93 0,-1.47 0.05,-2.72 0.16,-3.77 0.1,-1.05 0.16,-1.99 0.16,-2.83 0,-1.05 0.05,-1.94 0.16,-2.67 0.1,-0.73 0.16,-1.31 0.16,-1.73l0 -1.26c0,-0.21 0.11,-0.31 0.31,-0.31l0 1.57c0,0.42 0.05,0.99 0.16,1.73 0.11,0.73 0.16,1.62 0.16,2.67 0,0.84 0.05,1.78 0.16,2.83 0.11,1.05 0.16,2.3 0.16,3.77 0.21,1.26 0.31,2.57 0.31,3.93 0,1.36 0.1,2.88 0.31,4.56 0.21,2.93 0.31,6.23 0.31,9.9 0,3.67 0.1,7.38 0.31,11.16l0 5.97c0,1.05 0.05,2.1 0.16,3.14 0.1,1.05 0.16,2.1 0.16,3.14l0 12.26 0 12.26zm29.23 83.28c-4.82,0 -8.38,-1.2 -10.68,-3.61 -2.31,-2.41 -3.93,-5.29 -4.87,-8.64 -0.94,-3.35 -1.41,-6.91 -1.41,-10.69 0,-3.77 0,-7.12 0,-10.06l0 -47.45c0.63,-6.49 3.56,-11.21 8.8,-14.14 -2.93,-1.47 -5.87,-2.2 -8.8,-2.2l0 -10.68 0 -49.97c0,-2.72 0,-6.02 0,-9.9 0,-3.88 0.47,-7.49 1.41,-10.84 0.94,-3.35 2.57,-6.23 4.87,-8.64 2.3,-2.41 5.87,-3.61 10.68,-3.61 4.82,0 8.43,1.2 10.84,3.61 2.41,2.41 4.09,5.29 5.03,8.64 0.94,3.35 1.36,6.97 1.26,10.84 -0.1,3.88 -0.16,7.18 -0.16,9.9l0 49.97 0 10.68c-1.68,0 -3.2,0.21 -4.56,0.63 -1.36,0.42 -2.78,0.94 -4.24,1.57 5.45,3.14 8.38,7.86 8.8,14.14l0 47.45c0,2.93 0.05,6.28 0.16,10.06 0.11,3.77 -0.31,7.33 -1.26,10.69 -0.94,3.35 -2.62,6.23 -5.03,8.64 -2.41,2.41 -6.02,3.61 -10.84,3.61zm33.94 -83.28l0 3.14 0 3.14 0 5.97c-0.21,1.89 -0.31,3.77 -0.31,5.66 0,1.89 0,3.67 0,5.34 -0.21,1.89 -0.31,3.67 -0.31,5.34 0,1.68 -0.1,3.25 -0.31,4.71 0,1.68 -0.05,3.19 -0.16,4.56 -0.1,1.36 -0.16,2.78 -0.16,4.24 -0.21,1.26 -0.31,2.41 -0.31,3.46 0,1.05 0,1.99 0,2.83 -0.21,1.05 -0.32,1.94 -0.32,2.67 0,0.73 -0.1,1.31 -0.31,1.73l0 1.57 0 -1.57c-0.21,-0.63 -0.31,-2.1 -0.31,-4.4 -0.21,-0.84 -0.31,-1.78 -0.31,-2.83 0,-1.05 -0.1,-2.2 -0.31,-3.46 0,-1.47 -0.05,-2.88 -0.16,-4.24 -0.1,-1.36 -0.16,-2.88 -0.16,-4.56 -0.21,-1.47 -0.31,-3.04 -0.31,-4.71 0,-1.68 0,-3.46 0,-5.34 -0.21,-1.68 -0.31,-3.46 -0.31,-5.34 0,-1.89 0,-3.77 0,-5.66 -0.21,-1.05 -0.31,-2.04 -0.31,-2.99 0,-0.94 0,-1.94 0,-2.99l0 -3.14 0 -3.14 0 -12.26 0 -12.26 0 -6.29c0,-1.05 0,-2.04 0,-2.98 0,-0.94 0.1,-1.94 0.31,-2.99 0,-3.77 0.05,-7.49 0.16,-11.16 0.1,-3.67 0.26,-6.97 0.47,-9.9 0,-1.68 0.05,-3.2 0.16,-4.56 0.1,-1.36 0.16,-2.67 0.16,-3.93 0.21,-1.47 0.31,-2.72 0.31,-3.77 0,-1.05 0.1,-1.99 0.31,-2.83 0,-2.3 0.11,-3.77 0.31,-4.4l0 -1.57 0 1.57c0.21,0.63 0.31,2.09 0.31,4.4 0.21,0.84 0.32,1.78 0.32,2.83 0,1.05 0.1,2.3 0.31,3.77 0,1.26 0.05,2.57 0.16,3.93 0.1,1.36 0.16,2.88 0.16,4.56 0.21,2.93 0.37,6.23 0.47,9.9 0.1,3.67 0.26,7.38 0.47,11.16l0 5.97 0 6.29 0 12.26 0 12.26zm263.97 -13.51l0 -10.68 0 -49.97c-0.21,-6.49 -1.47,-12.67 -3.77,-18.54 -2.3,-5.87 -5.5,-10.95 -9.58,-15.24 -4.09,-4.29 -8.96,-7.7 -14.61,-10.21 -5.66,-2.51 -11.84,-3.77 -18.54,-3.77 -6.7,0 -12.83,1.26 -18.38,3.77 -5.55,2.51 -10.37,5.92 -14.46,10.21 -4.09,4.29 -7.28,9.38 -9.58,15.24 -2.3,5.87 -3.56,12.05 -3.77,18.54l0 49.97 0 10.68c-2.93,0 -5.87,0.73 -8.8,2.2 5.24,2.93 8.17,7.65 8.8,14.14l0 47.45c0.21,6.7 1.47,12.94 3.77,18.7 2.3,5.76 5.5,10.79 9.58,15.08 4.08,4.29 8.9,7.7 14.46,10.21 5.55,2.51 11.68,3.77 18.38,3.77 6.7,0 12.88,-1.26 18.54,-3.77 5.66,-2.51 10.53,-5.92 14.61,-10.21 4.08,-4.29 7.28,-9.32 9.58,-15.08 2.3,-5.76 3.56,-11.99 3.77,-18.7l0 -47.45c0.42,-6.28 3.35,-11 8.8,-14.14 -1.47,-0.63 -2.88,-1.15 -4.24,-1.57 -1.36,-0.42 -2.88,-0.63 -4.56,-0.63zm-75.73 13.51c0,1.47 -0.1,2.51 -0.31,3.14l0 3.14 0 5.97c0,1.89 -0.05,3.77 -0.16,5.66 -0.11,1.89 -0.16,3.67 -0.16,5.34 0,1.89 -0.05,3.67 -0.16,5.34 -0.11,1.68 -0.16,3.25 -0.16,4.71 -0.21,1.68 -0.31,3.19 -0.31,4.56 0,1.36 -0.11,2.78 -0.31,4.24 0,1.26 -0.05,2.41 -0.16,3.46 -0.1,1.05 -0.16,1.99 -0.16,2.83 0,1.05 -0.05,1.94 -0.16,2.67 -0.1,0.73 -0.16,1.31 -0.16,1.73l0 1.57c-0.21,0 -0.31,-0.1 -0.31,-0.31l0 -1.26c0,-0.42 -0.05,-1 -0.16,-1.73 -0.1,-0.73 -0.16,-1.62 -0.16,-2.67 0,-0.84 -0.05,-1.78 -0.16,-2.83 -0.1,-1.05 -0.16,-2.2 -0.16,-3.46 -0.21,-1.47 -0.31,-2.88 -0.31,-4.24 0,-1.36 -0.11,-2.88 -0.31,-4.56 0,-1.47 -0.05,-3.04 -0.16,-4.71 -0.11,-1.68 -0.16,-3.46 -0.16,-5.34 0,-1.68 -0.05,-3.46 -0.16,-5.34 -0.1,-1.89 -0.16,-3.77 -0.16,-5.66l0 -5.97 0 -3.14c-0.21,-0.63 -0.31,-1.68 -0.31,-3.14l0 -12.26 0 -12.26c0,-1.05 0.05,-2.1 0.16,-3.14 0.11,-1.05 0.16,-2.09 0.16,-3.14l0 -5.97c0.21,-3.77 0.31,-7.49 0.31,-11.16 0,-3.67 0.1,-6.97 0.31,-9.9 0.21,-1.68 0.31,-3.2 0.31,-4.56 0,-1.36 0.1,-2.67 0.31,-3.93 0,-1.47 0.05,-2.72 0.16,-3.77 0.1,-1.05 0.16,-1.99 0.16,-2.83 0,-1.05 0.05,-1.94 0.16,-2.67 0.1,-0.73 0.16,-1.31 0.16,-1.73l0 -1.26c0,-0.21 0.11,-0.31 0.31,-0.31l0 1.57c0,0.42 0.05,0.99 0.16,1.73 0.11,0.73 0.16,1.62 0.16,2.67 0,0.84 0.05,1.78 0.16,2.83 0.11,1.05 0.16,2.3 0.16,3.77 0.21,1.26 0.31,2.57 0.31,3.93 0,1.36 0.1,2.88 0.31,4.56 0.21,2.93 0.31,6.23 0.31,9.9 0,3.67 0.1,7.38 0.31,11.16l0 5.97c0,1.05 0.05,2.1 0.16,3.14 0.1,1.05 0.16,2.1 0.16,3.14l0 12.26 0 12.26zm29.23 83.28c-4.82,0 -8.38,-1.2 -10.68,-3.61 -2.3,-2.41 -3.93,-5.29 -4.87,-8.64 -0.94,-3.35 -1.41,-6.91 -1.41,-10.69 0,-3.77 0,-7.12 0,-10.06l0 -47.45c0.63,-6.49 3.56,-11.21 8.8,-14.14 -2.93,-1.47 -5.87,-2.2 -8.8,-2.2l0 -10.68 0 -49.97c0,-2.72 0,-6.02 0,-9.9 0,-3.88 0.47,-7.49 1.41,-10.84 0.94,-3.35 2.57,-6.23 4.87,-8.64 2.3,-2.41 5.87,-3.61 10.68,-3.61 4.82,0 8.43,1.2 10.84,3.61 2.41,2.41 4.09,5.29 5.03,8.64 0.94,3.35 1.36,6.97 1.26,10.84 -0.1,3.88 -0.16,7.18 -0.16,9.9l0 49.97 0 10.68c-1.68,0 -3.2,0.21 -4.56,0.63 -1.36,0.42 -2.78,0.94 -4.24,1.57 5.45,3.14 8.38,7.86 8.8,14.14l0 47.45c0,2.93 0.05,6.28 0.16,10.06 0.11,3.77 -0.31,7.33 -1.26,10.69 -0.94,3.35 -2.62,6.23 -5.03,8.64 -2.41,2.41 -6.02,3.61 -10.84,3.61zm33.94 -83.28l0 3.14 0 3.14 0 5.97c-0.21,1.89 -0.31,3.77 -0.31,5.66 0,1.89 0,3.67 0,5.34 -0.21,1.89 -0.31,3.67 -0.31,5.34 0,1.68 -0.1,3.25 -0.31,4.71 0,1.68 -0.05,3.19 -0.16,4.56 -0.1,1.36 -0.16,2.78 -0.16,4.24 -0.21,1.26 -0.31,2.41 -0.31,3.46 0,1.05 0,1.99 0,2.83 -0.21,1.05 -0.32,1.94 -0.32,2.67 0,0.73 -0.1,1.31 -0.31,1.73l0 1.57 0 -1.57c-0.21,-0.63 -0.31,-2.1 -0.31,-4.4 -0.21,-0.84 -0.31,-1.78 -0.31,-2.83 0,-1.05 -0.1,-2.2 -0.31,-3.46 0,-1.47 -0.05,-2.88 -0.16,-4.24 -0.1,-1.36 -0.16,-2.88 -0.16,-4.56 -0.21,-1.47 -0.31,-3.04 -0.31,-4.71 0,-1.68 0,-3.46 0,-5.34 -0.21,-1.68 -0.31,-3.46 -0.31,-5.34 0,-1.89 0,-3.77 0,-5.66 -0.21,-1.05 -0.31,-2.04 -0.31,-2.99 0,-0.94 0,-1.94 0,-2.99l0 -3.14 0 -3.14 0 -12.26 0 -12.26 0 -6.29c0,-1.05 0,-2.04 0,-2.98 0,-0.94 0.1,-1.94 0.31,-2.99 0,-3.77 0.05,-7.49 0.16,-11.16 0.1,-3.67 0.26,-6.97 0.47,-9.9 0,-1.68 0.05,-3.2 0.16,-4.56 0.1,-1.36 0.16,-2.67 0.16,-3.93 0.21,-1.47 0.31,-2.72 0.31,-3.77 0,-1.05 0.11,-1.99 0.31,-2.83 0,-2.3 0.11,-3.77 0.31,-4.4l0 -1.57 0 1.57c0.21,0.63 0.31,2.09 0.31,4.4 0.21,0.84 0.32,1.78 0.32,2.83 0,1.05 0.1,2.3 0.31,3.77 0,1.26 0.05,2.57 0.16,3.93 0.1,1.36 0.16,2.88 0.16,4.56 0.21,2.93 0.37,6.23 0.47,9.9 0.1,3.67 0.26,7.38 0.47,11.16l0 5.97 0 6.29 0 12.26 0 12.26z"/>
    <path class="fil0" d="M613.19 142.97c-5.87,3.35 -8.8,8.48 -8.8,15.45l0 1.26 0 16.34c0.21,1.26 0.37,2.57 0.47,3.93 0.1,1.36 0.16,2.78 0.16,4.24l0 20.48c-0.21,6.7 -1.62,12.94 -4.24,18.7 -2.62,5.76 -6.13,10.84 -10.53,15.14 -4.4,4.29 -9.53,7.7 -15.4,10.21 -5.87,2.51 -12.15,3.77 -18.85,3.77 -6.7,0 -12.99,-1.26 -18.86,-3.77 -5.87,-2.51 -11,-5.92 -15.4,-10.21 -4.4,-4.3 -7.91,-9.38 -10.53,-15.14 -2.62,-5.76 -4.03,-11.99 -4.24,-18.7l0 -20.48c0,-1.47 0,-2.88 0,-4.24 0,-1.36 0.21,-2.67 0.63,-3.93l0 -16.34 0 -1.26c0,-6.97 -2.93,-12.1 -8.8,-15.45 2.93,-1.47 5.87,-2.2 8.8,-2.2 2.93,0 5.66,0.73 8.17,2.2 2.51,1.47 4.61,3.35 6.28,5.66 1.26,-1.26 2.57,-2.36 3.93,-3.3 1.36,-0.94 2.78,-1.94 4.24,-2.98 -7.12,-4.4 -12.78,-10.27 -16.97,-17.6 -4.19,-7.28 -6.28,-15.35 -6.28,-24.14l0 -20.37c0.21,-6.49 1.62,-12.68 4.24,-18.54 2.62,-5.87 6.13,-10.95 10.53,-15.19 4.4,-4.29 9.53,-7.7 15.4,-10.21 5.87,-2.51 12.15,-3.77 18.86,-3.77 6.7,0 12.99,1.26 18.85,3.77 5.87,2.51 11,5.92 15.4,10.21 4.4,4.24 7.91,9.32 10.53,15.19 2.62,5.87 4.03,12.05 4.24,18.54l0 20.37c0,8.8 -2.09,16.87 -6.28,24.14 -4.19,7.33 -9.85,13.2 -16.97,17.6 1.47,1.05 2.88,2.04 4.24,2.98 1.36,0.94 2.57,2.04 3.61,3.3 1.68,-2.3 3.82,-4.19 6.44,-5.66 2.62,-1.47 5.39,-2.2 8.33,-2.2 2.93,0 5.87,0.73 8.8,2.2zm-24.2 -52.64l0 1.26 0 2.51c0,2.93 -0.05,5.81 -0.16,8.64 -0.11,2.83 -0.37,5.71 -0.79,8.64l0 0.94c0,0.42 -0.05,0.89 -0.16,1.41 -0.1,0.52 -0.16,0.99 -0.16,1.41 0,0.21 -0.05,0.37 -0.16,0.47 -0.1,0.1 -0.16,0.26 -0.16,0.47l0 0.31c0,0.21 -0.1,0.31 -0.31,0.31l0 0.63 0.31 -0.31 0.31 -0.31c0,0 0.1,-0.1 0.31,-0.31 0,-0.21 0.21,-0.52 0.63,-0.94 0.21,-0.63 0.63,-1.57 1.26,-2.83 0,-0.21 0.21,-0.73 0.63,-1.57 0.63,-1.89 1.1,-3.77 1.41,-5.66 0.31,-1.89 0.68,-3.77 1.1,-5.66 0,-1.26 0.1,-2.09 0.31,-2.51 0.42,-2.93 0.58,-5.76 0.47,-8.48 -0.1,-2.72 -0.26,-5.45 -0.47,-8.17 0,-0.63 -0.1,-1.05 -0.31,-1.26l0 -1.26c-0.21,-1.05 -0.37,-1.94 -0.47,-2.67 -0.1,-0.73 -0.26,-1.52 -0.47,-2.36 0,-0.42 -0.05,-0.79 -0.16,-1.1 -0.11,-0.31 -0.16,-0.68 -0.16,-1.1 -0.21,-0.42 -0.31,-0.84 -0.31,-1.26 -0.21,-0.21 -0.31,-0.52 -0.31,-0.94 -0.84,-2.09 -1.47,-3.56 -1.89,-4.4 -0.21,-0.63 -0.52,-1.36 -0.94,-2.2 -0.21,-0.42 -0.47,-0.73 -0.79,-0.94 -0.31,-0.21 -0.47,-0.52 -0.47,-0.94 0.42,1.47 0.73,2.93 0.94,4.4 0.21,1.47 0.31,2.93 0.31,4.4 0.21,1.68 0.37,3.25 0.47,4.71 0.1,1.47 0.16,3.04 0.16,4.71l0 5.03 0 5.34 0 1.57zm-66.31 -6.91c0.21,-0.84 0.31,-1.68 0.31,-2.51 0,-0.84 0,-1.68 0,-2.51 0,-1.68 0.05,-3.25 0.16,-4.71 0.1,-1.47 0.16,-3.04 0.16,-4.71 0.21,-0.42 0.31,-1.05 0.31,-1.89l0 -0.63c0,-0.21 0.05,-0.37 0.16,-0.47 0.1,-0.1 0.16,-0.26 0.16,-0.47l0 -1.57c0.21,-0.21 0.31,-0.63 0.31,-1.26 0,-0.21 0.05,-0.37 0.16,-0.47 0.1,-0.1 0.16,-0.26 0.16,-0.47l0 -0.94c0.21,-0.21 0.31,-0.42 0.31,-0.63 0,0 -0.1,0.21 -0.31,0.63 0,0 -0.21,0.21 -0.63,0.63 0,0.21 -0.21,0.52 -0.63,0.94 0,0 -0.21,0.42 -0.63,1.26 0,0.42 -0.21,0.84 -0.63,1.26 -0.84,2.09 -1.47,4.24 -1.89,6.44 -0.42,2.2 -0.84,4.45 -1.26,6.76 0,0.42 -0.1,0.84 -0.31,1.26l0 1.26c-0.21,1.26 -0.31,2.46 -0.31,3.61 0,1.15 0,2.36 0,3.61 -0.21,4.19 -0.05,8.38 0.47,12.57 0.52,4.19 1.62,8.28 3.3,12.26 0.63,1.26 1.05,2.2 1.26,2.83 0.42,0.42 0.63,0.73 0.63,0.94l0.31 0.31c0,0 0.1,0.1 0.31,0.31 0,0.21 0.1,0.31 0.31,0.31l-0.31 -0.63 0 -0.31 0 -0.31c0,-0.21 -0.05,-0.37 -0.16,-0.47 -0.1,-0.11 -0.16,-0.26 -0.16,-0.47 0,-0.42 -0.05,-0.89 -0.16,-1.41 -0.11,-0.52 -0.16,-1 -0.16,-1.41 0,-0.21 -0.05,-0.37 -0.16,-0.47 -0.11,-0.1 -0.16,-0.26 -0.16,-0.47l0 -0.94 0 -1.89c-0.21,-0.84 -0.31,-2.3 -0.31,-4.4 -0.21,-2.51 -0.37,-5.03 -0.47,-7.54 -0.1,-2.51 -0.16,-5.13 -0.16,-7.86l0 -5.34zm0 105.27c0.21,-0.84 0.31,-1.68 0.31,-2.51 0,-0.84 0,-1.68 0,-2.51 0,-4.82 0.32,-9.64 0.94,-14.46 0.21,-0.21 0.31,-0.63 0.31,-1.26 0,-0.21 0.05,-0.37 0.16,-0.47 0.1,-0.11 0.16,-0.26 0.16,-0.47l0 -0.94c0.21,-0.21 0.31,-0.42 0.31,-0.63 0,0 -0.1,0.21 -0.31,0.63 0,0 -0.21,0.21 -0.63,0.63 0,0.21 -0.21,0.52 -0.63,0.94 0,0 -0.21,0.42 -0.63,1.26 0,0.42 -0.21,0.84 -0.63,1.26 -1.05,2.3 -1.78,4.71 -2.2,7.23 -0.42,2.51 -0.84,4.92 -1.26,7.23l0 1.26c0,1.26 -0.1,2.2 -0.31,2.83l0 2.51 0 2.83c0,3.56 0.16,7.02 0.47,10.37 0.31,3.35 0.99,6.7 2.04,10.06 0.21,0.42 0.31,0.73 0.31,0.94 0,0.21 0.1,0.52 0.31,0.94 0.42,0.84 0.63,1.36 0.63,1.57 0.63,1.26 1.05,2.2 1.26,2.83 0.42,0.42 0.63,0.73 0.63,0.94l0.31 0.31c0,0 0.1,0.1 0.31,0.31 0,0.21 0.1,0.42 0.31,0.63l0 -0.31c0,0 -0.1,-0.21 -0.31,-0.63l0 -0.31 0 -0.31c0,-0.21 -0.05,-0.37 -0.16,-0.47 -0.1,-0.11 -0.16,-0.26 -0.16,-0.47 0,-0.42 -0.05,-0.89 -0.16,-1.41 -0.11,-0.52 -0.16,-1 -0.16,-1.41 0,-0.21 -0.05,-0.37 -0.16,-0.47 -0.11,-0.1 -0.16,-0.26 -0.16,-0.47l0 -0.94 0 -1.89c-0.21,-0.84 -0.31,-2.3 -0.31,-4.4 -0.21,-2.51 -0.37,-5.03 -0.47,-7.54 -0.1,-2.51 -0.16,-5.13 -0.16,-7.86l0 -5.34zm53.11 -4.4c0,-2.72 -0.1,-6.02 -0.31,-9.9 -0.21,-3.87 -0.89,-7.59 -2.04,-11.16 -1.15,-3.56 -3.04,-6.65 -5.66,-9.27 -2.62,-2.62 -6.34,-4.03 -11.16,-4.24l-0.63 0 -0.63 0c-4.82,0.21 -8.54,1.62 -11.16,4.24 -2.62,2.62 -4.5,5.71 -5.66,9.27 -1.15,3.56 -1.83,7.28 -2.04,11.16 -0.21,3.88 -0.31,7.18 -0.31,9.9l0 19.17c0,2.72 0.1,6.02 0.31,9.9 0.21,3.88 0.94,7.65 2.2,11.31 1.26,3.67 3.2,6.76 5.81,9.27 2.62,2.51 6.44,3.77 11.47,3.77 5.03,0 8.85,-1.26 11.47,-3.77 2.62,-2.51 4.56,-5.6 5.81,-9.27 1.26,-3.67 1.99,-7.44 2.2,-11.31 0.21,-3.88 0.31,-7.18 0.31,-9.9l0 -19.17zm0 -102.86c0,-2.72 -0.1,-6.02 -0.31,-9.9 -0.21,-3.82 -0.94,-7.59 -2.2,-11.26 -1.26,-3.67 -3.19,-6.7 -5.81,-9.22 -2.62,-2.51 -6.44,-3.77 -11.47,-3.77 -5.03,0 -8.85,1.26 -11.47,3.77 -2.62,2.51 -4.56,5.55 -5.81,9.22 -1.26,3.67 -1.99,7.44 -2.2,11.26 -0.21,3.88 -0.31,7.18 -0.31,9.9l0 19.06c0,2.72 0.1,6.07 0.31,10.06 0.21,3.93 0.94,7.7 2.2,11.26 1.26,3.56 3.2,6.6 5.81,9.22 2.62,2.62 6.44,3.93 11.47,3.93 5.03,0 8.85,-1.31 11.47,-3.93 2.62,-2.62 4.56,-5.66 5.81,-9.22 1.26,-3.56 1.99,-7.33 2.2,-11.26 0.21,-3.98 0.31,-7.33 0.31,-10.06l0 -19.06zm17.6 118.26c0.42,-3.77 0.42,-7.44 0,-11l0 -2.83c0,-0.63 -0.1,-1.05 -0.31,-1.26l0 -1.26c-0.42,-2.51 -0.89,-4.98 -1.41,-7.38 -0.52,-2.41 -1.41,-4.77 -2.67,-7.07 0,-0.42 -0.21,-0.84 -0.63,-1.26 0,-0.21 -0.05,-0.37 -0.16,-0.47 -0.1,-0.11 -0.16,-0.26 -0.16,-0.47 -0.42,-0.42 -0.63,-0.63 -0.63,-0.63 -0.21,-0.21 -0.31,-0.42 -0.31,-0.63l0 0.63c0.21,0.21 0.31,0.52 0.31,0.94 0,0.42 0.1,0.73 0.31,0.94l0 1.26c0.21,0.42 0.31,0.94 0.31,1.57l0 0.94c0.21,0 0.31,0.21 0.31,0.63l0 2.2c0.21,0.84 0.31,2.2 0.31,4.09 0.42,3.56 0.58,7.02 0.47,10.37 -0.11,3.35 -0.16,6.81 -0.16,10.37l0 1.57 0 1.26c0,1.89 -0.05,3.82 -0.16,5.81 -0.11,1.99 -0.26,3.93 -0.47,5.81l0 1.89c0,0.42 -0.1,0.73 -0.31,0.94l0 0.94c0,0.63 -0.05,1.52 -0.16,2.67 -0.1,1.15 -0.37,2.04 -0.79,2.67 0,-0.21 0.1,-0.42 0.31,-0.63l0.31 -0.31c0,0 0.1,-0.1 0.31,-0.31 0,-0.21 0.21,-0.52 0.63,-0.94 1.68,-3.77 2.83,-7.33 3.46,-10.68 0.42,-1.68 0.73,-3.4 0.94,-5.18 0.21,-1.78 0.31,-3.51 0.31,-5.19zm314.25 33.62c0,3.77 0.37,6.55 1.1,8.33 0.73,1.78 1.47,3.14 2.2,4.08 0.73,0.94 1.47,1.83 2.2,2.67 0.73,0.84 1.1,2.2 1.1,4.09l-86.42 0c-1.26,0 -2.2,-0.47 -2.83,-1.41 -0.63,-0.94 -0.73,-2.15 -0.31,-3.61 -0.42,1.47 -1.31,2.67 -2.67,3.61 -1.36,0.94 -2.78,1.41 -4.24,1.41l-16.34 0c0.63,-1.68 1.47,-3.14 2.51,-4.4 1.05,-1.26 2.2,-2.62 3.46,-4.08 1.26,-1.47 2.51,-3.04 3.77,-4.71 1.26,-1.68 2.3,-3.67 3.14,-5.97l0.31 0c0.84,-2.3 2.15,-6.02 3.93,-11.16 1.78,-5.13 3.77,-10.63 5.97,-16.5 2.2,-5.87 4.35,-11.63 6.44,-17.28 2.1,-5.66 3.98,-10.37 5.66,-14.14 0.42,-1.26 0.84,-2.2 1.26,-2.83l4.71 -12.57c0,-0.42 0.05,-0.68 0.16,-0.79 0.11,-0.11 0.16,-0.26 0.16,-0.47 1.26,-3.14 1.57,-6.08 0.94,-8.8 -0.63,-2.72 -1.99,-4.92 -4.09,-6.6 1.68,-0.63 3.25,-1.15 4.71,-1.57 1.47,-0.42 3.04,-0.52 4.71,-0.31 1.68,0 3.35,0.31 5.03,0.94 0.84,-1.26 1.36,-1.99 1.57,-2.2 4.19,-7.33 8.01,-14.19 11.47,-20.58 3.46,-6.39 6.13,-13.57 8.01,-21.53 0.42,-1.05 0.68,-2.51 0.79,-4.4 0.1,-1.89 0.26,-3.67 0.47,-5.34 0.21,-2.1 0.42,-4.09 0.63,-5.97 0,-2.72 -0.11,-6.02 -0.31,-9.9 -0.21,-3.88 -0.94,-7.59 -2.2,-11.16 -1.26,-3.56 -3.19,-6.65 -5.81,-9.27 -2.62,-2.62 -6.44,-3.93 -11.47,-3.93 -4.82,0 -8.59,1.26 -11.31,3.77 -2.72,2.51 -4.71,5.55 -5.97,9.11 -1.26,3.56 -1.99,7.28 -2.2,11.16 -0.21,3.88 -0.31,7.18 -0.31,9.9 0,3.77 0.37,6.55 1.1,8.33 0.73,1.78 1.52,3.14 2.36,4.09 0.84,0.94 1.62,1.83 2.36,2.67 0.73,0.84 1.1,2.2 1.1,4.08l-16.66 0c-1.26,0 -2.41,-0.47 -3.46,-1.41 -1.05,-0.94 -1.57,-2.15 -1.57,-3.61 0,3.35 -1.67,5.03 -5.03,5.03l-16.34 0c0,-1.89 0.37,-3.25 1.1,-4.08 0.73,-0.84 1.52,-1.73 2.36,-2.67 0.84,-0.94 1.62,-2.3 2.36,-4.09 0.73,-1.78 1.1,-4.45 1.1,-8.01 0,-6.7 1.31,-13.04 3.93,-19.01 2.62,-5.97 6.13,-11.16 10.53,-15.55 4.4,-4.4 9.58,-7.91 15.56,-10.53 5.97,-2.62 12.31,-3.93 19.01,-3.93 3.14,0 6.39,0.37 9.74,1.1 3.35,0.73 6.49,1.62 9.43,2.67 5.24,2.09 9.95,5.19 14.14,9.27 4.19,4.08 7.65,8.54 10.37,13.36 3.35,5.87 4.98,12.31 4.87,19.33 -0.11,7.02 -0.68,13.78 -1.73,20.27 -1.68,8.8 -4.14,16.81 -7.38,24.04 -3.25,7.23 -6.76,14.19 -10.53,20.9 2.3,0.42 4.5,1.57 6.6,3.46 -5.45,1.26 -10.06,4.09 -13.83,8.48 -1.26,2.3 -2.51,4.5 -3.77,6.6 -1.26,2.09 -2.62,4.29 -4.09,6.6l-2.2 4.09c-1.05,2.3 -2.1,4.5 -3.14,6.6 -1.05,2.09 -2.1,4.29 -3.14,6.6 -1.05,2.51 -2.36,5.71 -3.93,9.58 -1.57,3.88 -3.14,8.01 -4.71,12.41 -1.57,4.4 -3.14,8.75 -4.71,13.04 -1.57,4.29 -2.98,8.22 -4.24,11.78 0.42,1.47 1.05,2.72 1.89,3.77 0.84,1.05 2.09,1.57 3.77,1.57l19.17 0c2.3,0 4.24,-0.84 5.81,-2.51 1.57,-1.68 2.36,-3.67 2.36,-5.97l0 -10.06c0.21,-5.24 1.47,-9.85 3.77,-13.83 1.89,-3.56 4.82,-6.81 8.8,-9.74 3.98,-2.93 9.64,-4.4 16.97,-4.4l0 42.11zm-66.93 -31.74c0.42,-0.84 0.84,-1.68 1.26,-2.51 0.42,-0.84 0.84,-1.68 1.26,-2.51 0.84,-1.89 1.68,-3.77 2.51,-5.66 0.84,-1.89 1.78,-3.77 2.83,-5.66 1.05,-2.09 2.15,-4.14 3.3,-6.13 1.15,-1.99 2.36,-4.14 3.61,-6.44 0.42,-1.05 0.94,-2.15 1.57,-3.3 0.63,-1.15 1.26,-2.25 1.89,-3.3l3.77 -6.6c1.47,-2.3 2.83,-4.56 4.09,-6.76 1.26,-2.2 2.51,-4.45 3.77,-6.76 1.26,-2.3 2.51,-4.66 3.77,-7.07 1.26,-2.41 2.41,-4.77 3.46,-7.07 2.3,-4.19 4.5,-8.8 6.6,-13.83 0.21,-0.63 0.42,-1.2 0.63,-1.73 0.21,-0.52 0.42,-1.1 0.63,-1.73 0.21,-1.26 0.63,-2.41 1.26,-3.46 0,-0.42 0.1,-0.73 0.31,-0.94 0,0 0.1,-0.21 0.31,-0.63 0,-0.42 0.05,-0.73 0.16,-0.94 0.11,-0.21 0.16,-0.52 0.16,-0.94 0.21,-0.42 0.42,-0.94 0.63,-1.57 0.21,-0.63 0.42,-1.15 0.63,-1.57 0.21,-0.63 0.31,-1.2 0.31,-1.73 0,-0.52 0.1,-1.1 0.31,-1.73 0.21,-0.21 0.31,-0.42 0.31,-0.63 0,-0.21 0.1,-0.52 0.31,-0.94 0,-0.63 0.1,-1.15 0.31,-1.57 0.21,-1.05 0.37,-2.04 0.47,-2.99 0.11,-0.94 0.26,-1.94 0.47,-2.99 0.21,-0.42 0.31,-0.89 0.31,-1.41 0,-0.52 0.1,-1 0.31,-1.41 0,-1.26 0.1,-2.2 0.31,-2.83 0,-1.05 0.05,-1.99 0.16,-2.83 0.1,-0.84 0.16,-1.68 0.16,-2.51l0 -4.4 0 -1.89c0,-0.42 -0.05,-0.73 -0.16,-0.94 -0.1,-0.21 -0.16,-0.52 -0.16,-0.94l0 -1.57 0 -0.63 0 -0.31c0,-0.21 -0.1,-0.42 -0.31,-0.63l0 -2.2c-0.21,-0.42 -0.31,-0.84 -0.31,-1.26l0 -0.63 0 1.89c0,0.63 0,1.41 0,2.36 0,0.94 -0.11,1.94 -0.31,2.99l0 1.88 0 1.89c-0.21,0.63 -0.31,1.31 -0.31,2.04 0,0.73 -0.1,1.52 -0.31,2.36 -0.21,0.84 -0.31,1.62 -0.31,2.36 0,0.73 -0.1,1.62 -0.31,2.67 -0.21,0.42 -0.31,0.84 -0.31,1.26 0,0.42 -0.1,0.84 -0.31,1.26 -0.21,0.42 -0.31,0.89 -0.31,1.41 0,0.52 -0.11,1 -0.31,1.41 -0.21,1.05 -0.42,2.04 -0.63,2.99 -0.21,0.94 -0.52,1.94 -0.94,2.98 -0.42,1.26 -0.73,2.3 -0.94,3.14 -0.42,1.26 -0.73,2.3 -0.94,3.14 -0.84,2.1 -1.62,4.19 -2.36,6.29 -0.73,2.09 -1.62,4.29 -2.67,6.6 -0.42,0.84 -0.73,1.36 -0.94,1.57 -0.21,0.42 -0.31,0.73 -0.31,0.94 0,0.21 -0.1,0.52 -0.31,0.94 -0.63,1.05 -1.15,2.1 -1.57,3.14 -0.63,1.26 -1.21,2.46 -1.73,3.61 -0.52,1.15 -1.1,2.25 -1.73,3.3 -1.26,2.3 -2.51,4.61 -3.77,6.91 -1.26,2.3 -2.51,4.61 -3.77,6.91 -1.26,2.3 -2.51,4.56 -3.77,6.76 -1.26,2.2 -2.51,4.45 -3.77,6.76 -1.26,2.3 -2.51,4.56 -3.77,6.76 -1.26,2.2 -2.41,4.45 -3.46,6.76 -1.05,2.3 -2.1,4.5 -3.14,6.6 -1.05,2.1 -2.09,4.19 -3.14,6.28 -0.42,1.26 -0.84,2.3 -1.26,3.14 -0.21,0.42 -0.42,0.89 -0.63,1.41 -0.21,0.52 -0.42,0.99 -0.63,1.41 -0.42,1.05 -0.79,2.04 -1.1,2.99 -0.31,0.94 -0.68,1.83 -1.1,2.67l-1.89 5.66c-0.21,0.42 -0.37,0.79 -0.47,1.1 -0.1,0.31 -0.26,0.68 -0.47,1.1 0,0.42 -0.05,0.68 -0.16,0.79 -0.1,0.1 -0.16,0.26 -0.16,0.47 -0.21,0.42 -0.31,0.84 -0.31,1.26 -0.42,0.84 -0.68,1.62 -0.79,2.36 -0.1,0.73 -0.26,1.41 -0.47,2.04l-0.94 3.77c-0.21,0.21 -0.31,0.73 -0.31,1.57 -0.21,0.21 -0.31,0.63 -0.31,1.26 -0.21,0.42 -0.31,0.79 -0.31,1.1 0,0.32 -0.1,0.68 -0.31,1.1 -0.21,0.42 -0.31,0.94 -0.31,1.57l0 0.31c0.21,0 0.31,-0.1 0.31,-0.31 0,-0.63 0.11,-1.15 0.31,-1.57 0.21,-0.21 0.31,-0.47 0.31,-0.79 0,-0.32 0.1,-0.68 0.31,-1.1 0.21,-0.42 0.31,-0.68 0.31,-0.79 0,-0.1 0.1,-0.37 0.31,-0.79 0,-0.21 0.21,-0.73 0.63,-1.57 0.21,-0.42 0.37,-0.94 0.47,-1.57 0.11,-0.63 0.37,-1.26 0.79,-1.89 0.21,-0.63 0.42,-1.26 0.63,-1.89 0.21,-0.63 0.52,-1.36 0.94,-2.2l1.89 -4.71zm175.35 -60.96l0 -10.68 0 -49.97c-0.21,-6.49 -1.47,-12.67 -3.77,-18.54 -2.3,-5.87 -5.5,-10.95 -9.58,-15.24 -4.09,-4.29 -8.96,-7.7 -14.61,-10.21 -5.66,-2.51 -11.84,-3.77 -18.54,-3.77 -6.7,0 -12.83,1.26 -18.38,3.77 -5.55,2.51 -10.37,5.92 -14.46,10.21 -4.09,4.29 -7.28,9.38 -9.58,15.24 -2.3,5.87 -3.56,12.05 -3.77,18.54l0 49.97 0 10.68c-2.93,0 -5.87,0.73 -8.8,2.2 5.24,2.93 8.17,7.65 8.8,14.14l0 47.45c0.21,6.7 1.47,12.94 3.77,18.7 2.3,5.76 5.5,10.79 9.58,15.08 4.08,4.29 8.9,7.7 14.46,10.21 5.55,2.51 11.68,3.77 18.38,3.77 6.7,0 12.88,-1.26 18.54,-3.77 5.66,-2.51 10.53,-5.92 14.61,-10.21 4.08,-4.29 7.28,-9.32 9.58,-15.08 2.3,-5.76 3.56,-11.99 3.77,-18.7l0 -47.45c0.42,-6.28 3.35,-11 8.8,-14.14 -1.47,-0.63 -2.88,-1.15 -4.24,-1.57 -1.36,-0.42 -2.88,-0.63 -4.56,-0.63zm-75.73 13.51c0,1.47 -0.1,2.51 -0.31,3.14l0 3.14 0 5.97c0,1.89 -0.05,3.77 -0.16,5.66 -0.11,1.89 -0.16,3.67 -0.16,5.34 0,1.89 -0.05,3.67 -0.16,5.34 -0.11,1.68 -0.16,3.25 -0.16,4.71 -0.21,1.68 -0.31,3.19 -0.31,4.56 0,1.36 -0.11,2.78 -0.31,4.24 0,1.26 -0.05,2.41 -0.16,3.46 -0.1,1.05 -0.16,1.99 -0.16,2.83 0,1.05 -0.05,1.94 -0.16,2.67 -0.1,0.73 -0.16,1.31 -0.16,1.73l0 1.57c-0.21,0 -0.31,-0.1 -0.31,-0.31l0 -1.26c0,-0.42 -0.05,-1 -0.16,-1.73 -0.1,-0.73 -0.16,-1.62 -0.16,-2.67 0,-0.84 -0.05,-1.78 -0.16,-2.83 -0.1,-1.05 -0.16,-2.2 -0.16,-3.46 -0.21,-1.47 -0.31,-2.88 -0.31,-4.24 0,-1.36 -0.11,-2.88 -0.31,-4.56 0,-1.47 -0.05,-3.04 -0.16,-4.71 -0.1,-1.68 -0.16,-3.46 -0.16,-5.34 0,-1.68 -0.05,-3.46 -0.16,-5.34 -0.11,-1.89 -0.16,-3.77 -0.16,-5.66l0 -5.97 0 -3.14c-0.21,-0.63 -0.31,-1.68 -0.31,-3.14l0 -12.26 0 -12.26c0,-1.05 0.05,-2.1 0.16,-3.14 0.11,-1.05 0.16,-2.09 0.16,-3.14l0 -5.97c0.21,-3.77 0.32,-7.49 0.32,-11.16 0,-3.67 0.1,-6.97 0.31,-9.9 0.21,-1.68 0.31,-3.2 0.31,-4.56 0,-1.36 0.1,-2.67 0.31,-3.93 0,-1.47 0.05,-2.72 0.16,-3.77 0.1,-1.05 0.16,-1.99 0.16,-2.83 0,-1.05 0.05,-1.94 0.16,-2.67 0.1,-0.73 0.16,-1.31 0.16,-1.73l0 -1.26c0,-0.21 0.11,-0.31 0.31,-0.31l0 1.57c0,0.42 0.05,0.99 0.16,1.73 0.11,0.73 0.16,1.62 0.16,2.67 0,0.84 0.05,1.78 0.16,2.83 0.11,1.05 0.16,2.3 0.16,3.77 0.21,1.26 0.31,2.57 0.31,3.93 0,1.36 0.1,2.88 0.31,4.56 0.21,2.93 0.31,6.23 0.31,9.9 0,3.67 0.1,7.38 0.31,11.16l0 5.97c0,1.05 0.05,2.1 0.16,3.14 0.1,1.05 0.16,2.1 0.16,3.14l0 12.26 0 12.26zm29.22 83.28c-4.82,0 -8.38,-1.2 -10.68,-3.61 -2.3,-2.41 -3.93,-5.29 -4.87,-8.64 -0.94,-3.35 -1.41,-6.91 -1.41,-10.69 0,-3.77 0,-7.12 0,-10.06l0 -47.45c0.63,-6.49 3.56,-11.21 8.8,-14.14 -2.93,-1.47 -5.87,-2.2 -8.8,-2.2l0 -10.68 0 -49.97c0,-2.72 0,-6.02 0,-9.9 0,-3.88 0.47,-7.49 1.41,-10.84 0.94,-3.35 2.57,-6.23 4.87,-8.64 2.3,-2.41 5.87,-3.61 10.68,-3.61 4.82,0 8.43,1.2 10.84,3.61 2.41,2.41 4.08,5.29 5.03,8.64 0.94,3.35 1.36,6.97 1.26,10.84 -0.1,3.88 -0.16,7.18 -0.16,9.9l0 49.97 0 10.68c-1.68,0 -3.19,0.21 -4.56,0.63 -1.36,0.42 -2.78,0.94 -4.24,1.57 5.45,3.14 8.38,7.86 8.8,14.14l0 47.45c0,2.93 0.05,6.28 0.16,10.06 0.11,3.77 -0.31,7.33 -1.26,10.69 -0.94,3.35 -2.62,6.23 -5.03,8.64 -2.41,2.41 -6.02,3.61 -10.84,3.61zm33.94 -83.28l0 3.14 0 3.14 0 5.97c-0.21,1.89 -0.31,3.77 -0.31,5.66 0,1.89 0,3.67 0,5.34 -0.21,1.89 -0.31,3.67 -0.31,5.34 0,1.68 -0.1,3.25 -0.31,4.71 0,1.68 -0.05,3.19 -0.16,4.56 -0.11,1.36 -0.16,2.78 -0.16,4.24 -0.21,1.26 -0.31,2.41 -0.31,3.46 0,1.05 0,1.99 0,2.83 -0.21,1.05 -0.31,1.94 -0.31,2.67 0,0.73 -0.1,1.31 -0.31,1.73l0 1.57 0 -1.57c-0.21,-0.63 -0.31,-2.1 -0.31,-4.4 -0.21,-0.84 -0.31,-1.78 -0.31,-2.83 0,-1.05 -0.1,-2.2 -0.31,-3.46 0,-1.47 -0.05,-2.88 -0.16,-4.24 -0.1,-1.36 -0.16,-2.88 -0.16,-4.56 -0.21,-1.47 -0.31,-3.04 -0.31,-4.71 0,-1.68 0,-3.46 0,-5.34 -0.21,-1.68 -0.31,-3.46 -0.31,-5.34 0,-1.89 0,-3.77 0,-5.66 -0.21,-1.05 -0.31,-2.04 -0.31,-2.99 0,-0.94 0,-1.94 0,-2.99l0 -3.14 0 -3.14 0 -12.26 0 -12.26 0 -6.29c0,-1.05 0,-2.04 0,-2.98 0,-0.94 0.1,-1.94 0.31,-2.99 0,-3.77 0.05,-7.49 0.16,-11.16 0.1,-3.67 0.26,-6.97 0.47,-9.9 0,-1.68 0.05,-3.2 0.16,-4.56 0.1,-1.36 0.16,-2.67 0.16,-3.93 0.21,-1.47 0.31,-2.72 0.31,-3.77 0,-1.05 0.11,-1.99 0.31,-2.83 0,-2.3 0.11,-3.77 0.31,-4.4l0 -1.57 0 1.57c0.21,0.63 0.31,2.09 0.31,4.4 0.21,0.84 0.31,1.78 0.31,2.83 0,1.05 0.1,2.3 0.31,3.77 0,1.26 0.05,2.57 0.16,3.93 0.1,1.36 0.16,2.88 0.16,4.56 0.21,2.93 0.37,6.23 0.47,9.9 0.1,3.67 0.26,7.38 0.47,11.16l0 5.97 0 6.29 0 12.26 0 12.26z"/>
    <path class="fil0" d="M1130.75 233.32c0,3.77 0.37,6.55 1.1,8.33 0.73,1.78 1.47,3.14 2.2,4.08 0.73,0.94 1.47,1.83 2.2,2.67 0.73,0.84 1.1,2.2 1.1,4.09l-86.42 0c-1.26,0 -2.2,-0.47 -2.83,-1.41 -0.63,-0.94 -0.73,-2.15 -0.31,-3.61 -0.42,1.47 -1.31,2.67 -2.67,3.61 -1.36,0.94 -2.78,1.41 -4.24,1.41l-16.34 0c0.63,-1.68 1.47,-3.14 2.51,-4.4 1.05,-1.26 2.2,-2.62 3.46,-4.08 1.26,-1.47 2.51,-3.04 3.77,-4.71 1.26,-1.68 2.3,-3.67 3.14,-5.97l0.31 0c0.84,-2.3 2.15,-6.02 3.93,-11.16 1.78,-5.13 3.77,-10.63 5.97,-16.5 2.2,-5.87 4.35,-11.63 6.44,-17.28 2.1,-5.66 3.98,-10.37 5.66,-14.14 0.42,-1.26 0.84,-2.2 1.26,-2.83l4.71 -12.57c0,-0.42 0.05,-0.68 0.16,-0.79 0.1,-0.11 0.16,-0.26 0.16,-0.47 1.26,-3.14 1.57,-6.08 0.94,-8.8 -0.63,-2.72 -1.99,-4.92 -4.09,-6.6 1.68,-0.63 3.25,-1.15 4.71,-1.57 1.47,-0.42 3.04,-0.52 4.71,-0.31 1.68,0 3.35,0.31 5.03,0.94 0.84,-1.26 1.36,-1.99 1.57,-2.2 4.19,-7.33 8.01,-14.19 11.47,-20.58 3.46,-6.39 6.13,-13.57 8.01,-21.53 0.42,-1.05 0.68,-2.51 0.79,-4.4 0.1,-1.89 0.26,-3.67 0.47,-5.34 0.21,-2.1 0.42,-4.09 0.63,-5.97 0,-2.72 -0.11,-6.02 -0.32,-9.9 -0.21,-3.88 -0.94,-7.59 -2.2,-11.16 -1.26,-3.56 -3.2,-6.65 -5.81,-9.27 -2.62,-2.62 -6.44,-3.93 -11.47,-3.93 -4.82,0 -8.59,1.26 -11.31,3.77 -2.72,2.51 -4.71,5.55 -5.97,9.11 -1.26,3.56 -1.99,7.28 -2.2,11.16 -0.21,3.88 -0.31,7.18 -0.31,9.9 0,3.77 0.37,6.55 1.1,8.33 0.73,1.78 1.52,3.14 2.36,4.09 0.84,0.94 1.62,1.83 2.36,2.67 0.73,0.84 1.1,2.2 1.1,4.08l-16.66 0c-1.26,0 -2.41,-0.47 -3.46,-1.41 -1.05,-0.94 -1.57,-2.15 -1.57,-3.61 0,3.35 -1.68,5.03 -5.03,5.03l-16.34 0c0,-1.89 0.37,-3.25 1.1,-4.08 0.73,-0.84 1.52,-1.73 2.36,-2.67 0.84,-0.94 1.62,-2.3 2.36,-4.09 0.73,-1.78 1.1,-4.45 1.1,-8.01 0,-6.7 1.31,-13.04 3.93,-19.01 2.62,-5.97 6.13,-11.16 10.53,-15.55 4.4,-4.4 9.58,-7.91 15.56,-10.53 5.97,-2.62 12.31,-3.93 19.01,-3.93 3.14,0 6.39,0.37 9.74,1.1 3.35,0.73 6.49,1.62 9.43,2.67 5.24,2.09 9.95,5.19 14.14,9.27 4.19,4.08 7.65,8.54 10.37,13.36 3.35,5.87 4.98,12.31 4.87,19.33 -0.11,7.02 -0.68,13.78 -1.73,20.27 -1.68,8.8 -4.14,16.81 -7.38,24.04 -3.25,7.23 -6.76,14.19 -10.53,20.9 2.3,0.42 4.5,1.57 6.6,3.46 -5.45,1.26 -10.06,4.09 -13.83,8.48 -1.26,2.3 -2.51,4.5 -3.77,6.6 -1.26,2.09 -2.62,4.29 -4.09,6.6l-2.2 4.09c-1.05,2.3 -2.1,4.5 -3.14,6.6 -1.05,2.09 -2.1,4.29 -3.14,6.6 -1.05,2.51 -2.36,5.71 -3.93,9.58 -1.57,3.88 -3.14,8.01 -4.71,12.41 -1.57,4.4 -3.14,8.75 -4.71,13.04 -1.57,4.29 -2.99,8.22 -4.24,11.78 0.42,1.47 1.05,2.72 1.89,3.77 0.84,1.05 2.09,1.57 3.77,1.57l19.17 0c2.3,0 4.24,-0.84 5.81,-2.51 1.57,-1.68 2.36,-3.67 2.36,-5.97l0 -10.06c0.21,-5.24 1.47,-9.85 3.77,-13.83 1.89,-3.56 4.82,-6.81 8.8,-9.74 3.98,-2.93 9.64,-4.4 16.97,-4.4l0 42.11zm-66.93 -31.74c0.42,-0.84 0.84,-1.68 1.26,-2.51 0.42,-0.84 0.84,-1.68 1.26,-2.51 0.84,-1.89 1.68,-3.77 2.51,-5.66 0.84,-1.89 1.78,-3.77 2.83,-5.66 1.05,-2.09 2.15,-4.14 3.3,-6.13 1.15,-1.99 2.36,-4.14 3.61,-6.44 0.42,-1.05 0.94,-2.15 1.57,-3.3 0.63,-1.15 1.26,-2.25 1.89,-3.3l3.77 -6.6c1.47,-2.3 2.83,-4.56 4.09,-6.76 1.26,-2.2 2.51,-4.45 3.77,-6.76 1.26,-2.3 2.51,-4.66 3.77,-7.07 1.26,-2.41 2.41,-4.77 3.46,-7.07 2.3,-4.19 4.5,-8.8 6.6,-13.83 0.21,-0.63 0.42,-1.2 0.63,-1.73 0.21,-0.52 0.42,-1.1 0.63,-1.73 0.21,-1.26 0.63,-2.41 1.26,-3.46 0,-0.42 0.1,-0.73 0.31,-0.94 0,0 0.1,-0.21 0.31,-0.63 0,-0.42 0.05,-0.73 0.16,-0.94 0.11,-0.21 0.16,-0.52 0.16,-0.94 0.21,-0.42 0.42,-0.94 0.63,-1.57 0.21,-0.63 0.42,-1.15 0.63,-1.57 0.21,-0.63 0.31,-1.2 0.31,-1.73 0,-0.52 0.1,-1.1 0.31,-1.73 0.21,-0.21 0.31,-0.42 0.31,-0.63 0,-0.21 0.1,-0.52 0.31,-0.94 0,-0.63 0.1,-1.15 0.31,-1.57 0.21,-1.05 0.37,-2.04 0.47,-2.99 0.11,-0.94 0.26,-1.94 0.47,-2.99 0.21,-0.42 0.31,-0.89 0.31,-1.41 0,-0.52 0.1,-1 0.31,-1.41 0,-1.26 0.1,-2.2 0.31,-2.83 0,-1.05 0.05,-1.99 0.16,-2.83 0.1,-0.84 0.16,-1.68 0.16,-2.51l0 -4.4 0 -1.89c0,-0.42 -0.05,-0.73 -0.16,-0.94 -0.1,-0.21 -0.16,-0.52 -0.16,-0.94l0 -1.57 0 -0.63 0 -0.31c0,-0.21 -0.1,-0.42 -0.31,-0.63l0 -2.2c-0.21,-0.42 -0.31,-0.84 -0.31,-1.26l0 -0.63 0 1.89c0,0.63 0,1.41 0,2.36 0,0.94 -0.11,1.94 -0.31,2.99l0 1.88 0 1.89c-0.21,0.63 -0.32,1.31 -0.32,2.04 0,0.73 -0.1,1.52 -0.31,2.36 -0.21,0.84 -0.31,1.62 -0.31,2.36 0,0.73 -0.1,1.62 -0.31,2.67 -0.21,0.42 -0.31,0.84 -0.31,1.26 0,0.42 -0.1,0.84 -0.31,1.26 -0.21,0.42 -0.31,0.89 -0.31,1.41 0,0.52 -0.11,1 -0.31,1.41 -0.21,1.05 -0.42,2.04 -0.63,2.99 -0.21,0.94 -0.52,1.94 -0.94,2.98 -0.42,1.26 -0.73,2.3 -0.94,3.14 -0.42,1.26 -0.73,2.3 -0.94,3.14 -0.84,2.1 -1.62,4.19 -2.36,6.29 -0.73,2.09 -1.62,4.29 -2.67,6.6 -0.42,0.84 -0.73,1.36 -0.94,1.57 -0.21,0.42 -0.31,0.73 -0.31,0.94 0,0.21 -0.1,0.52 -0.31,0.94 -0.63,1.05 -1.15,2.1 -1.57,3.14 -0.63,1.26 -1.2,2.46 -1.73,3.61 -0.52,1.15 -1.1,2.25 -1.73,3.3 -1.26,2.3 -2.51,4.61 -3.77,6.91 -1.26,2.3 -2.51,4.61 -3.77,6.91 -1.26,2.3 -2.51,4.56 -3.77,6.76 -1.26,2.2 -2.51,4.45 -3.77,6.76 -1.26,2.3 -2.51,4.56 -3.77,6.76 -1.26,2.2 -2.41,4.45 -3.46,6.76 -1.05,2.3 -2.1,4.5 -3.14,6.6 -1.05,2.1 -2.09,4.19 -3.14,6.28 -0.42,1.26 -0.84,2.3 -1.26,3.14 -0.21,0.42 -0.42,0.89 -0.63,1.41 -0.21,0.52 -0.42,0.99 -0.63,1.41 -0.42,1.05 -0.79,2.04 -1.1,2.99 -0.31,0.94 -0.68,1.83 -1.1,2.67l-1.89 5.66c-0.21,0.42 -0.37,0.79 -0.47,1.1 -0.1,0.31 -0.26,0.68 -0.47,1.1 0,0.42 -0.05,0.68 -0.16,0.79 -0.11,0.1 -0.16,0.26 -0.16,0.47 -0.21,0.42 -0.31,0.84 -0.31,1.26 -0.42,0.84 -0.68,1.62 -0.79,2.36 -0.1,0.73 -0.26,1.41 -0.47,2.04l-0.94 3.77c-0.21,0.21 -0.31,0.73 -0.31,1.57 -0.21,0.21 -0.31,0.63 -0.31,1.26 -0.21,0.42 -0.31,0.79 -0.31,1.1 0,0.32 -0.1,0.68 -0.31,1.1 -0.21,0.42 -0.31,0.94 -0.31,1.57l0 0.31c0.21,0 0.31,-0.1 0.31,-0.31 0,-0.63 0.11,-1.15 0.31,-1.57 0.21,-0.21 0.31,-0.47 0.31,-0.79 0,-0.32 0.1,-0.68 0.31,-1.1 0.21,-0.42 0.31,-0.68 0.31,-0.79 0,-0.1 0.1,-0.37 0.31,-0.79 0,-0.21 0.21,-0.73 0.63,-1.57 0.21,-0.42 0.37,-0.94 0.47,-1.57 0.11,-0.63 0.37,-1.26 0.79,-1.89 0.21,-0.63 0.42,-1.26 0.63,-1.89 0.21,-0.63 0.52,-1.36 0.94,-2.2l1.89 -4.71zm180.06 31.74c0,3.77 0.37,6.55 1.1,8.33 0.73,1.78 1.47,3.14 2.2,4.08 0.73,0.94 1.47,1.83 2.2,2.67 0.73,0.84 1.1,2.2 1.1,4.09l-86.42 0c-1.26,0 -2.2,-0.47 -2.83,-1.41 -0.63,-0.94 -0.73,-2.15 -0.31,-3.61 -0.42,1.47 -1.31,2.67 -2.67,3.61 -1.36,0.94 -2.78,1.41 -4.24,1.41l-16.34 0c0.63,-1.68 1.47,-3.14 2.51,-4.4 1.05,-1.26 2.2,-2.62 3.46,-4.08 1.26,-1.47 2.51,-3.04 3.77,-4.71 1.26,-1.68 2.3,-3.67 3.14,-5.97l0.31 0c0.84,-2.3 2.15,-6.02 3.93,-11.16 1.78,-5.13 3.77,-10.63 5.97,-16.5 2.2,-5.87 4.35,-11.63 6.44,-17.28 2.1,-5.66 3.98,-10.37 5.66,-14.14 0.42,-1.26 0.84,-2.2 1.26,-2.83l4.71 -12.57c0,-0.42 0.05,-0.68 0.16,-0.79 0.1,-0.11 0.16,-0.26 0.16,-0.47 1.26,-3.14 1.57,-6.08 0.94,-8.8 -0.63,-2.72 -1.99,-4.92 -4.09,-6.6 1.68,-0.63 3.25,-1.15 4.71,-1.57 1.47,-0.42 3.04,-0.52 4.71,-0.31 1.68,0 3.35,0.31 5.03,0.94 0.84,-1.26 1.36,-1.99 1.57,-2.2 4.19,-7.33 8.01,-14.19 11.47,-20.58 3.46,-6.39 6.13,-13.57 8.01,-21.53 0.42,-1.05 0.68,-2.51 0.79,-4.4 0.1,-1.89 0.26,-3.67 0.47,-5.34 0.21,-2.1 0.42,-4.09 0.63,-5.97 0,-2.72 -0.11,-6.02 -0.32,-9.9 -0.21,-3.88 -0.94,-7.59 -2.2,-11.16 -1.26,-3.56 -3.2,-6.65 -5.81,-9.27 -2.62,-2.62 -6.44,-3.93 -11.47,-3.93 -4.82,0 -8.59,1.26 -11.31,3.77 -2.72,2.51 -4.71,5.55 -5.97,9.11 -1.26,3.56 -1.99,7.28 -2.2,11.16 -0.21,3.88 -0.31,7.18 -0.31,9.9 0,3.77 0.37,6.55 1.1,8.33 0.73,1.78 1.52,3.14 2.36,4.09 0.84,0.94 1.62,1.83 2.36,2.67 0.73,0.84 1.1,2.2 1.1,4.08l-16.66 0c-1.26,0 -2.41,-0.47 -3.46,-1.41 -1.05,-0.94 -1.57,-2.15 -1.57,-3.61 0,3.35 -1.68,5.03 -5.03,5.03l-16.34 0c0,-1.89 0.37,-3.25 1.1,-4.08 0.73,-0.84 1.52,-1.73 2.36,-2.67 0.84,-0.94 1.62,-2.3 2.36,-4.09 0.73,-1.78 1.1,-4.45 1.1,-8.01 0,-6.7 1.31,-13.04 3.93,-19.01 2.62,-5.97 6.13,-11.16 10.53,-15.55 4.4,-4.4 9.58,-7.91 15.56,-10.53 5.97,-2.62 12.31,-3.93 19.01,-3.93 3.14,0 6.39,0.37 9.74,1.1 3.35,0.73 6.49,1.62 9.43,2.67 5.24,2.09 9.95,5.19 14.14,9.27 4.19,4.08 7.65,8.54 10.37,13.36 3.35,5.87 4.98,12.31 4.87,19.33 -0.11,7.02 -0.68,13.78 -1.73,20.27 -1.68,8.8 -4.14,16.81 -7.38,24.04 -3.25,7.23 -6.76,14.19 -10.53,20.9 2.3,0.42 4.5,1.57 6.6,3.46 -5.45,1.26 -10.06,4.09 -13.83,8.48 -1.26,2.3 -2.51,4.5 -3.77,6.6 -1.26,2.09 -2.62,4.29 -4.09,6.6l-2.2 4.09c-1.05,2.3 -2.1,4.5 -3.14,6.6 -1.05,2.09 -2.1,4.29 -3.14,6.6 -1.05,2.51 -2.36,5.71 -3.93,9.58 -1.57,3.88 -3.14,8.01 -4.71,12.41 -1.57,4.4 -3.14,8.75 -4.71,13.04 -1.57,4.29 -2.99,8.22 -4.24,11.78 0.42,1.47 1.05,2.72 1.89,3.77 0.84,1.05 2.09,1.57 3.77,1.57l19.17 0c2.3,0 4.24,-0.84 5.81,-2.51 1.57,-1.68 2.36,-3.67 2.36,-5.97l0 -10.06c0.21,-5.24 1.47,-9.85 3.77,-13.83 1.89,-3.56 4.82,-6.81 8.8,-9.74 3.98,-2.93 9.64,-4.4 16.97,-4.4l0 42.11zm-66.93 -31.74c0.42,-0.84 0.84,-1.68 1.26,-2.51 0.42,-0.84 0.84,-1.68 1.26,-2.51 0.84,-1.89 1.68,-3.77 2.51,-5.66 0.84,-1.89 1.78,-3.77 2.83,-5.66 1.05,-2.09 2.15,-4.14 3.3,-6.13 1.15,-1.99 2.36,-4.14 3.61,-6.44 0.42,-1.05 0.94,-2.15 1.57,-3.3 0.63,-1.15 1.26,-2.25 1.89,-3.3l3.77 -6.6c1.47,-2.3 2.83,-4.56 4.09,-6.76 1.26,-2.2 2.51,-4.45 3.77,-6.76 1.26,-2.3 2.51,-4.66 3.77,-7.07 1.26,-2.41 2.41,-4.77 3.46,-7.07 2.3,-4.19 4.5,-8.8 6.6,-13.83 0.21,-0.63 0.42,-1.2 0.63,-1.73 0.21,-0.52 0.42,-1.1 0.63,-1.73 0.21,-1.26 0.63,-2.41 1.26,-3.46 0,-0.42 0.1,-0.73 0.31,-0.94 0,0 0.1,-0.21 0.31,-0.63 0,-0.42 0.05,-0.73 0.16,-0.94 0.11,-0.21 0.16,-0.52 0.16,-0.94 0.21,-0.42 0.42,-0.94 0.63,-1.57 0.21,-0.63 0.42,-1.15 0.63,-1.57 0.21,-0.63 0.31,-1.2 0.31,-1.73 0,-0.52 0.1,-1.1 0.31,-1.73 0.21,-0.21 0.31,-0.42 0.31,-0.63 0,-0.21 0.1,-0.52 0.31,-0.94 0,-0.63 0.1,-1.15 0.31,-1.57 0.21,-1.05 0.37,-2.04 0.47,-2.99 0.11,-0.94 0.26,-1.94 0.47,-2.99 0.21,-0.42 0.31,-0.89 0.31,-1.41 0,-0.52 0.1,-1 0.31,-1.41 0,-1.26 0.1,-2.2 0.31,-2.83 0,-1.05 0.05,-1.99 0.16,-2.83 0.1,-0.84 0.16,-1.68 0.16,-2.51l0 -4.4 0 -1.89c0,-0.42 -0.05,-0.73 -0.16,-0.94 -0.1,-0.21 -0.16,-0.52 -0.16,-0.94l0 -1.57 0 -0.63 0 -0.31c0,-0.21 -0.1,-0.42 -0.31,-0.63l0 -2.2c-0.21,-0.42 -0.31,-0.84 -0.31,-1.26l0 -0.63 0 1.89c0,0.63 0,1.41 0,2.36 0,0.94 -0.11,1.94 -0.31,2.99l0 1.88 0 1.89c-0.21,0.63 -0.32,1.31 -0.32,2.04 0,0.73 -0.1,1.52 -0.31,2.36 -0.21,0.84 -0.31,1.62 -0.31,2.36 0,0.73 -0.1,1.62 -0.31,2.67 -0.21,0.42 -0.31,0.84 -0.31,1.26 0,0.42 -0.1,0.84 -0.31,1.26 -0.21,0.42 -0.31,0.89 -0.31,1.41 0,0.52 -0.11,1 -0.31,1.41 -0.21,1.05 -0.42,2.04 -0.63,2.99 -0.21,0.94 -0.52,1.94 -0.94,2.98 -0.42,1.26 -0.73,2.3 -0.94,3.14 -0.42,1.26 -0.73,2.3 -0.94,3.14 -0.84,2.1 -1.62,4.19 -2.36,6.29 -0.73,2.09 -1.62,4.29 -2.67,6.6 -0.42,0.84 -0.73,1.36 -0.94,1.57 -0.21,0.42 -0.31,0.73 -0.31,0.94 0,0.21 -0.1,0.52 -0.31,0.94 -0.63,1.05 -1.15,2.1 -1.57,3.14 -0.63,1.26 -1.2,2.46 -1.73,3.61 -0.52,1.15 -1.1,2.25 -1.73,3.3 -1.26,2.3 -2.51,4.61 -3.77,6.91 -1.26,2.3 -2.51,4.61 -3.77,6.91 -1.26,2.3 -2.51,4.56 -3.77,6.76 -1.26,2.2 -2.51,4.45 -3.77,6.76 -1.26,2.3 -2.51,4.56 -3.77,6.76 -1.26,2.2 -2.41,4.45 -3.46,6.76 -1.05,2.3 -2.1,4.5 -3.14,6.6 -1.05,2.1 -2.09,4.19 -3.14,6.28 -0.42,1.26 -0.84,2.3 -1.26,3.14 -0.21,0.42 -0.42,0.89 -0.63,1.41 -0.21,0.52 -0.42,0.99 -0.63,1.41 -0.42,1.05 -0.79,2.04 -1.1,2.99 -0.31,0.94 -0.68,1.83 -1.1,2.67l-1.89 5.66c-0.21,0.42 -0.37,0.79 -0.47,1.1 -0.1,0.31 -0.26,0.68 -0.47,1.1 0,0.42 -0.05,0.68 -0.16,0.79 -0.11,0.1 -0.16,0.26 -0.16,0.47 -0.21,0.42 -0.31,0.84 -0.31,1.26 -0.42,0.84 -0.68,1.62 -0.79,2.36 -0.1,0.73 -0.26,1.41 -0.47,2.04l-0.94 3.77c-0.21,0.21 -0.31,0.73 -0.31,1.57 -0.21,0.21 -0.31,0.63 -0.31,1.26 -0.21,0.42 -0.32,0.79 -0.32,1.1 0,0.32 -0.1,0.68 -0.31,1.1 -0.21,0.42 -0.31,0.94 -0.31,1.57l0 0.31c0.21,0 0.31,-0.1 0.31,-0.31 0,-0.63 0.11,-1.15 0.31,-1.57 0.21,-0.21 0.32,-0.47 0.32,-0.79 0,-0.32 0.1,-0.68 0.31,-1.1 0.21,-0.42 0.31,-0.68 0.31,-0.79 0,-0.1 0.1,-0.37 0.31,-0.79 0,-0.21 0.21,-0.73 0.63,-1.57 0.21,-0.42 0.37,-0.94 0.47,-1.57 0.11,-0.63 0.37,-1.26 0.79,-1.89 0.21,-0.63 0.42,-1.26 0.63,-1.89 0.21,-0.63 0.52,-1.36 0.94,-2.2l1.89 -4.71z"/>
   </g>
   <polygon class="fil0" points="730.72,25.97 752.01,24.16 698.97,258.47 677.58,260.29 "/>
   <polygon class="fil0" points="334.64,25.47 355.94,23.66 302.89,257.97 281.51,259.79 "/>
  </g>
 </g>
</svg>
