<?xml version="1.0" encoding="UTF-8"?>
<!DOCTYPE svg PUBLIC "-//W3C//DTD SVG 1.1//EN" "http://www.w3.org/Graphics/SVG/1.1/DTD/svg11.dtd">
<!-- Creator: CorelDRAW 2019 (64 Bit Versão de avaliação) -->
<svg xmlns="http://www.w3.org/2000/svg" xml:space="preserve" width="196.523mm" height="46.1035mm" version="1.1" style="shape-rendering:geometricPrecision; text-rendering:geometricPrecision; image-rendering:optimizeQuality; fill-rule:evenodd; clip-rule:evenodd"
viewBox="0 0 1358.24 318.64"
 xmlns:xlink="http://www.w3.org/1999/xlink">
 <defs>
  <style type="text/css">
   <![CDATA[
    .fil0 {fill:#FFCC29;fill-rule:nonzero}
   ]]>
  </style>
    <clipPath id="id0">
     <path d="M-0 0l1358.24 0 0 318.64 -1358.24 0 0 -318.64z"/>
    </clipPath>
 </defs>
 <g id="Camada_x0020_1">
  <metadata id="CorelCorpID_0Corel-Layer"/>
  <g id="_2273509807344">
   <g style="clip-path:url(#id0)">
    <image x="-0" y="0" width="1358.24" height="318.64" xlink:href="noscinemas_Images\noscinemas_ImgID1.png"/>
   </g>
  </g>
  <path class="fil0" d="M142.94 271.27c0,4.1 0.4,7.11 1.25,9.04 0.85,1.93 1.71,3.41 2.67,4.44 0.97,1.02 1.82,1.99 2.67,2.9 0.85,0.91 1.25,2.39 1.25,4.44l-18.03 0c-3.7,0 -5.52,-1.82 -5.52,-5.46 0,3.64 -1.82,5.46 -5.46,5.46l-18.09 0 0 -0.34 -35.5 -213.31 0 80.89c3.19,0 6.31,0.8 9.5,2.39 -5.63,3.19 -8.82,8.31 -9.5,15.36l0 94.2c0,4.1 0.4,7.11 1.19,9.04 0.8,1.93 1.65,3.41 2.56,4.44 0.91,1.02 1.76,1.99 2.56,2.9 0.8,0.91 1.19,2.39 1.19,4.44l-17.75 0c-3.64,0 -5.46,-1.82 -5.46,-5.46 0,1.59 -0.57,2.9 -1.71,3.92 -1.19,1.02 -2.45,1.54 -3.81,1.54l-18.37 0c0,-2.05 0.4,-3.53 1.19,-4.44 0.8,-0.91 1.65,-1.88 2.56,-2.9 0.91,-1.02 1.76,-2.45 2.56,-4.27 0.8,-1.82 1.19,-4.66 1.19,-8.53l0 -94.88c-0.68,-7.05 -3.87,-12.17 -9.56,-15.36 3.19,-1.59 6.37,-2.39 9.56,-2.39l0 -112.63c0,-3.87 -0.4,-6.71 -1.19,-8.53 -0.8,-1.82 -1.65,-3.24 -2.56,-4.27 -0.91,-1.02 -1.76,-1.99 -2.56,-2.9 -0.8,-0.91 -1.19,-2.39 -1.19,-4.44l18.37 0c1.37,0 2.62,0.57 3.81,1.71 1.14,1.14 1.71,2.5 1.71,4.1 0,-1.59 0.51,-2.96 1.54,-4.1 1.02,-1.14 2.33,-1.71 3.87,-1.71l17.69 0 35.27 212.63 0 -62.12c-0.45,-6.83 -3.47,-11.94 -9.16,-15.36 3.07,-1.59 6.09,-2.39 9.16,-2.39l0 -112.63c0,-3.87 -0.4,-6.71 -1.19,-8.53 -0.8,-1.82 -1.65,-3.24 -2.56,-4.27 -0.91,-1.02 -1.76,-1.99 -2.56,-2.9 -0.8,-0.91 -1.19,-2.39 -1.19,-4.44l18.32 0c1.65,0 2.96,0.57 3.98,1.71 1.08,1.14 1.59,2.5 1.59,4.1 0,-1.59 0.51,-2.96 1.54,-4.1 1.08,-1.14 2.39,-1.71 3.98,-1.71l18.03 0c0,2.05 -0.4,3.53 -1.25,4.44 -0.85,0.91 -1.71,1.93 -2.67,3.07 -0.97,1.14 -1.82,2.62 -2.67,4.44 -0.85,1.82 -1.25,4.78 -1.25,8.87l0 111.95c3.19,0 6.37,0.8 9.56,2.39 -2.5,1.59 -4.61,3.75 -6.31,6.48 -1.71,2.73 -2.79,5.69 -3.24,8.87l0 94.2zm-88.06 -111.95l0 -18.43c0,-1.59 -0.06,-3.07 -0.17,-4.44 -0.11,-1.36 -0.17,-2.84 -0.17,-4.44l0 -8.87c-0.23,-5.69 -0.34,-11.21 -0.34,-16.55 0,-5.35 -0.11,-10.3 -0.34,-14.85 -0.23,-2.28 -0.34,-4.49 -0.34,-6.66 0,-2.16 -0.11,-4.15 -0.34,-5.97 0,-1.82 -0.06,-3.53 -0.17,-5.12 -0.11,-1.59 -0.17,-3.07 -0.17,-4.44 0,-1.36 -0.06,-2.56 -0.17,-3.58 -0.11,-1.02 -0.17,-1.88 -0.17,-2.56l0 -2.39c-0.23,0.23 -0.34,0.46 -0.34,0.68l0 1.71c0,0.68 -0.06,1.54 -0.17,2.56 -0.11,1.02 -0.17,2.22 -0.17,3.58 0,1.36 -0.06,2.84 -0.17,4.44 -0.11,1.59 -0.17,3.3 -0.17,5.12 -0.23,1.82 -0.34,3.81 -0.34,5.97 0,2.16 -0.11,4.38 -0.34,6.66 -0.23,4.55 -0.34,9.5 -0.34,14.85 0,5.35 -0.11,10.86 -0.34,16.55l0 8.87c0,1.59 0,3.07 0,4.44 0,1.36 -0.11,2.84 -0.34,4.44l0 18.43 0 18.43c0,0.68 0.06,1.42 0.17,2.22 0.11,0.8 0.17,1.54 0.17,2.22l0 4.44 0 8.87c0,2.96 0.06,5.8 0.17,8.53 0.11,2.73 0.17,5.35 0.17,7.85 0,2.73 0.06,5.29 0.17,7.68 0.11,2.39 0.17,4.84 0.17,7.34 0.23,1.14 0.34,2.22 0.34,3.24 0,1.02 0,2.1 0,3.24 0,1.14 0.06,2.16 0.17,3.07 0.11,0.91 0.17,1.93 0.17,3.07 0,1.82 0.06,3.53 0.17,5.12 0.11,1.59 0.17,3.07 0.17,4.44 0,1.36 0.06,2.56 0.17,3.58 0.11,1.02 0.17,1.88 0.17,2.56l0 1.71c0,0.23 0.11,0.45 0.34,0.68l0 -2.39c0,-0.68 0.06,-1.54 0.17,-2.56 0.11,-1.02 0.17,-2.22 0.17,-3.58 0,-1.36 0.06,-2.84 0.17,-4.44 0.11,-1.59 0.17,-3.3 0.17,-5.12 0.23,-1.14 0.34,-2.16 0.34,-3.07 0,-0.91 0,-1.93 0,-3.07 0,-1.14 0.06,-2.22 0.17,-3.24 0.11,-1.02 0.17,-2.11 0.17,-3.24 0,-2.5 0.06,-4.95 0.17,-7.34 0.11,-2.39 0.17,-4.95 0.17,-7.68 0,-2.5 0.06,-5.12 0.17,-7.85 0.11,-2.73 0.17,-5.57 0.17,-8.53l0 -8.87c0,-0.68 0,-1.42 0,-2.22 0,-0.8 0.11,-1.54 0.34,-2.22l0 -4.44 0 -18.43zm74.4 0l0 -18.43 0 -8.87c0,-1.59 0,-3.07 0,-4.44 0,-1.37 0,-2.84 0,-4.44 0,-5.69 -0.06,-11.21 -0.17,-16.55 -0.11,-5.35 -0.28,-10.3 -0.51,-14.85 -0.23,-2.28 -0.34,-4.49 -0.34,-6.66 0,-2.16 -0.11,-4.15 -0.34,-5.97 0,-1.82 0,-3.53 0,-5.12 0,-1.59 -0.11,-3.07 -0.34,-4.44 0,-1.36 -0.06,-2.56 -0.17,-3.58 -0.11,-1.02 -0.17,-1.88 -0.17,-2.56l-0.34 -2.39 0 0.68c0,0.23 0,0.45 -0.06,0.68 -0.06,0.23 -0.11,0.57 -0.11,1.02 0,0.68 0,1.54 0,2.56 0,1.02 -0.06,2.22 -0.17,3.58 0,1.36 -0.06,2.84 -0.17,4.44 -0.11,1.59 -0.17,3.3 -0.17,5.12 -0.23,1.82 -0.34,3.81 -0.34,5.97 0,2.16 -0.11,4.38 -0.34,6.66 0,4.55 -0.06,9.5 -0.17,14.85 -0.11,5.35 -0.28,10.86 -0.51,16.55l0 8.87 0 8.87c-0.23,3.19 -0.34,6.26 -0.34,9.21 0,2.96 0,6.03 0,9.21 0,3.19 0,6.26 0,9.22 0,2.96 0.11,6.03 0.34,9.21l0 4.44 0 4.44 0 8.87c0,2.96 0.06,5.8 0.17,8.53 0.11,2.73 0.17,5.35 0.17,7.85 0.23,2.73 0.34,5.29 0.34,7.68 0,2.39 0,4.84 0,7.34 0.23,1.14 0.34,2.22 0.34,3.24 0,1.02 0,2.1 0,3.24 0,1.14 0.06,2.16 0.17,3.07 0.11,0.91 0.17,1.93 0.17,3.07 0,1.82 0.06,3.53 0.17,5.12 0.11,1.59 0.17,3.07 0.17,4.44 0.23,1.36 0.34,2.56 0.34,3.58 0,1.02 0,1.88 0,2.56 0,0.45 0.06,0.8 0.17,1.02 0.11,0.23 0.17,0.46 0.17,0.68l0 0.68 -0.34 -2.39c0,-0.68 0.11,-1.54 0.34,-2.56 0.23,-1.02 0.34,-2.22 0.34,-3.58 0.23,-1.36 0.34,-2.84 0.34,-4.44 0,-1.59 0,-3.3 0,-5.12 0.23,-1.14 0.34,-2.16 0.34,-3.07 0,-0.91 0,-1.93 0,-3.07 0,-1.14 0.06,-2.22 0.17,-3.24 0.11,-1.02 0.17,-2.11 0.17,-3.24 0,-2.5 0.06,-4.95 0.17,-7.34 0.11,-2.39 0.17,-4.95 0.17,-7.68 0.23,-2.5 0.34,-5.12 0.34,-7.85 0,-2.73 0,-5.57 0,-8.53 0,-1.59 0,-3.07 0,-4.44 0,-1.36 0,-2.84 0,-4.44l0 -4.44 0 -4.44 0 -18.43z"/>
  <path id="1" class="fil0" d="M269.22 159.32c3.19,0 6.37,0.8 9.56,2.39 -2.5,1.59 -4.61,3.75 -6.31,6.48 -1.71,2.73 -2.79,5.69 -3.24,8.87l0 63.14c-0.23,7.28 -1.76,14.05 -4.61,20.31 -2.84,6.26 -6.66,11.72 -11.43,16.38 -4.78,4.66 -10.35,8.36 -16.72,11.09 -6.37,2.73 -13.2,4.1 -20.48,4.1 -7.28,0 -14.11,-1.36 -20.48,-4.1 -6.37,-2.73 -11.95,-6.43 -16.72,-11.09 -4.78,-4.66 -8.59,-10.13 -11.43,-16.38 -2.84,-6.26 -4.38,-13.03 -4.61,-20.31l0 -63.14c-0.68,-7.05 -3.87,-12.17 -9.56,-15.36 3.19,-1.59 6.37,-2.39 9.56,-2.39l0 -11.6 0 -68.94c0.23,-7.28 1.76,-14.11 4.61,-20.48 2.84,-6.37 6.65,-11.89 11.43,-16.55 4.78,-4.66 10.35,-8.36 16.72,-11.09 6.37,-2.73 13.2,-4.1 20.48,-4.1 7.28,0 14.11,1.36 20.48,4.1 6.37,2.73 11.95,6.43 16.72,11.09 4.78,4.66 8.59,10.18 11.43,16.55 2.84,6.37 4.38,13.2 4.61,20.48l0 68.94 0 11.6zm-87.71 -0.34l0 -15.7c0,-1.37 -0.06,-2.73 -0.17,-4.1 -0.11,-1.37 -0.17,-2.62 -0.17,-3.75l0 -7.85c-0.23,-5.01 -0.34,-9.78 -0.34,-14.33 0,-4.55 -0.11,-8.87 -0.34,-12.97 -0.23,-2.05 -0.34,-3.92 -0.34,-5.63 0,-1.71 -0.11,-3.47 -0.34,-5.29 0,-1.59 -0.06,-3.13 -0.17,-4.61 -0.11,-1.48 -0.17,-2.79 -0.17,-3.92 0,-1.14 -0.06,-2.16 -0.17,-3.07 -0.11,-0.91 -0.17,-1.59 -0.17,-2.05l0 -2.05c-0.23,0.23 -0.34,0.45 -0.34,0.68l0 1.36c0,0.45 -0.06,1.14 -0.17,2.05 -0.11,0.91 -0.17,1.93 -0.17,3.07 0,1.14 -0.06,2.45 -0.17,3.92 -0.11,1.48 -0.17,3.01 -0.17,4.61 -0.23,1.82 -0.34,3.58 -0.34,5.29 0,1.71 -0.11,3.58 -0.34,5.63 -0.23,4.1 -0.34,8.42 -0.34,12.97 0,4.55 -0.11,9.33 -0.34,14.33l0 7.85c0,1.14 0,2.39 0,3.75 0,1.36 -0.11,2.73 -0.34,4.1l0 15.7 0 16.04c0,0.68 0.06,1.37 0.17,2.05 0.11,0.68 0.17,1.25 0.17,1.71l0 4.1 0 7.51c0,2.5 0.06,4.95 0.17,7.34 0.11,2.39 0.17,4.84 0.17,7.34 0,2.28 0.06,4.49 0.17,6.66 0.11,2.16 0.17,4.15 0.17,5.97 0.23,2.05 0.34,3.98 0.34,5.8 0,1.82 0.11,3.53 0.34,5.12 0,1.82 0.06,3.41 0.17,4.78 0.11,1.36 0.17,2.62 0.17,3.75 0,1.14 0.06,2.16 0.17,3.07 0.11,0.91 0.17,1.71 0.17,2.39l0 1.71c0,0.23 0.11,0.34 0.34,0.34l0 -2.05c0,-0.68 0.06,-1.48 0.17,-2.39 0.11,-0.91 0.17,-1.93 0.17,-3.07 0,-1.14 0.06,-2.39 0.17,-3.75 0.11,-1.36 0.17,-2.96 0.17,-4.78 0.23,-1.59 0.34,-3.3 0.34,-5.12 0,-1.82 0.11,-3.75 0.34,-5.8 0,-1.82 0.06,-3.81 0.17,-5.97 0.11,-2.16 0.17,-4.38 0.17,-6.66 0,-2.5 0.06,-4.95 0.17,-7.34 0.11,-2.39 0.17,-4.84 0.17,-7.34l0 -7.51c0,-1.82 0.11,-3.19 0.34,-4.1l0 -3.75 0 -16.04zm55.97 -78.84c0,-2.96 -0.11,-6.6 -0.34,-10.92 -0.23,-4.32 -1.02,-8.42 -2.39,-12.29 -1.31,-3.87 -3.41,-7.22 -6.26,-10.07 -2.79,-2.84 -6.94,-4.27 -12.34,-4.27 -5.4,0 -9.56,1.42 -12.34,4.27 -2.84,2.84 -4.95,6.2 -6.26,10.07 -1.37,3.87 -2.16,7.96 -2.39,12.29 -0.23,4.32 -0.34,7.96 -0.34,10.92l0 67.58 0 11.6c3.07,0 6.14,0.8 9.21,2.39 -5.46,3.19 -8.53,8.31 -9.21,15.36l0 61.78c0,2.96 0.11,6.54 0.34,10.75 0.23,4.21 1.02,8.3 2.39,12.29 1.31,3.98 3.41,7.34 6.26,10.07 2.79,2.73 6.94,4.1 12.34,4.1 5.4,0 9.56,-1.36 12.34,-4.1 2.84,-2.73 4.95,-6.09 6.26,-10.07 1.36,-3.98 2.16,-8.08 2.39,-12.29 0.23,-4.21 0.34,-7.79 0.34,-10.75l0 -61.78c-0.45,-6.83 -3.64,-11.94 -9.56,-15.36 3.19,-1.59 6.37,-2.39 9.56,-2.39l0 -11.6 0 -67.58zm18.43 78.84l0 -15.7c0,-1.37 0,-2.73 0,-4.1 0,-1.37 0,-2.62 0,-3.75l-0.34 -7.85c0,-5.01 0,-9.78 -0.06,-14.33 -0.06,-4.55 -0.17,-8.87 -0.28,-12.97 -0.23,-2.05 -0.34,-3.92 -0.34,-5.63 0,-1.71 -0.11,-3.47 -0.34,-5.29 0,-1.59 0,-3.13 0,-4.61 0,-1.48 -0.11,-2.79 -0.34,-3.92 0,-1.14 -0.06,-2.16 -0.17,-3.07 -0.11,-0.91 -0.17,-1.59 -0.17,-2.05l-0.34 -2.05 0 0.68c0,0.23 0,0.4 0,0.51 0,0.11 0,0.4 0,0.85 0,0.45 0,1.14 0,2.05 0,0.91 -0.11,1.93 -0.34,3.07 0,1.14 -0.06,2.45 -0.17,3.92 -0.11,1.48 -0.17,3.01 -0.17,4.61 -0.23,1.82 -0.34,3.58 -0.34,5.29 0,1.71 -0.11,3.58 -0.34,5.63 0,4.1 -0.06,8.42 -0.17,12.97 -0.11,4.55 -0.28,9.33 -0.51,14.33l0 7.85 0 7.85c-0.23,2.5 -0.34,5.12 -0.34,7.85 0,2.73 0,5.35 0,7.85 0,2.73 0,5.46 0,8.19 0,2.73 0.11,5.35 0.34,7.85l0 3.75 0 4.1 0 7.51c0,2.5 0.06,4.95 0.17,7.34 0.11,2.39 0.17,4.84 0.17,7.34 0.23,2.28 0.34,4.49 0.34,6.66 0,2.16 0,4.15 0,5.97 0.23,2.05 0.34,3.98 0.34,5.8 0,1.82 0.11,3.53 0.34,5.12 0,1.82 0.06,3.41 0.17,4.78 0.11,1.36 0.17,2.62 0.17,3.75 0.23,1.14 0.34,2.16 0.34,3.07 0,0.91 0,1.71 0,2.39 0,0.46 0.06,0.8 0.17,1.02 0.11,0.23 0.17,0.45 0.17,0.68l0 0.34 -0.34 -2.05c0,-0.68 0.11,-1.48 0.34,-2.39 0.23,-0.91 0.34,-1.93 0.34,-3.07 0.23,-1.14 0.34,-2.39 0.34,-3.75 0,-1.36 0,-2.96 0,-4.78 0.23,-1.59 0.34,-3.3 0.34,-5.12 0,-1.82 0.11,-3.75 0.34,-5.8 0,-1.82 0.06,-3.81 0.17,-5.97 0.11,-2.16 0.17,-4.38 0.17,-6.66 0.23,-2.5 0.34,-4.95 0.34,-7.34 0,-2.39 0,-4.84 0,-7.34 0,-1.14 0,-2.39 0,-3.75 0,-1.37 0,-2.62 0,-3.75l0 -4.1 0 -3.75 0 -16.04z"/>
  <path id="2" class="fil0" d="M402.33 161.71c-6.37,3.64 -9.56,9.22 -9.56,16.72l0 1.36 0 12.29 0 10.92 0 0.34 0 36.86c-0.23,7.28 -1.76,14.05 -4.61,20.31 -2.84,6.26 -6.66,11.72 -11.43,16.38 -4.78,4.66 -10.35,8.36 -16.72,11.09 -6.37,2.73 -13.2,4.1 -20.48,4.1 -7.28,0 -14.16,-1.42 -20.65,-4.27 -6.48,-2.84 -12.12,-6.65 -16.89,-11.43 -4.78,-4.78 -8.59,-10.41 -11.43,-16.89 -2.84,-6.48 -4.27,-13.37 -4.27,-20.65 0,-3.87 -0.4,-6.77 -1.19,-8.7 -0.8,-1.93 -1.65,-3.41 -2.56,-4.44 -0.91,-1.02 -1.76,-1.99 -2.56,-2.9 -0.8,-0.91 -1.19,-2.39 -1.19,-4.44l17.75 0c3.64,0 5.46,1.82 5.46,5.46 0,-1.59 0.57,-2.9 1.71,-3.92 1.14,-1.02 2.39,-1.54 3.75,-1.54l18.09 0c0,2.05 -0.4,3.53 -1.19,4.44 -0.8,0.91 -1.65,1.88 -2.56,2.9 -0.91,1.02 -1.76,2.5 -2.56,4.44 -0.8,1.93 -1.19,4.95 -1.19,9.04 0,2.96 0.11,6.54 0.34,10.75 0.23,4.21 1.02,8.25 2.39,12.12 1.36,3.87 3.53,7.17 6.48,9.9 2.96,2.73 7.05,4.1 12.29,4.1 5.46,0 9.61,-1.36 12.46,-4.1 2.84,-2.73 4.95,-6.09 6.31,-10.07 1.36,-3.98 2.16,-8.08 2.39,-12.29 0.23,-4.21 0.34,-7.79 0.34,-10.75l0 -36.86c0,-2.96 -0.17,-6.54 -0.51,-10.75 -0.34,-4.21 -1.19,-8.19 -2.56,-11.95 -1.36,-3.75 -3.47,-6.94 -6.31,-9.56 -2.84,-2.62 -6.88,-3.92 -12.12,-3.92 -7.28,0 -14.11,-1.36 -20.48,-4.1 -6.37,-2.73 -11.95,-6.43 -16.72,-11.09 -4.78,-4.66 -8.59,-10.18 -11.43,-16.55 -2.84,-6.37 -4.38,-13.2 -4.61,-20.48l0 -34.81c0.23,-7.28 1.76,-14.11 4.61,-20.48 2.84,-6.37 6.65,-11.89 11.43,-16.55 4.78,-4.66 10.35,-8.36 16.72,-11.09 6.37,-2.73 13.2,-4.1 20.48,-4.1 7.28,0 14.16,1.42 20.65,4.27 6.48,2.79 12.12,6.6 16.89,11.38 4.78,4.72 8.59,10.35 11.43,16.78 2.84,6.48 4.27,13.42 4.27,20.93 0,3.81 0.4,6.66 1.19,8.48 0.8,1.82 1.65,3.3 2.56,4.44 0.91,1.14 1.76,2.11 2.56,3.02 0.8,0.91 1.19,2.39 1.19,4.44l-17.75 0c-1.59,-0.23 -2.96,-0.74 -4.1,-1.54 -1.14,-0.8 -1.71,-1.99 -1.71,-3.58 0,2.96 -1.82,4.66 -5.46,5.12l-17.75 0c0,-2.05 0.4,-3.53 1.19,-4.44 0.8,-0.85 1.65,-1.88 2.56,-3.02 0.91,-1.14 1.76,-2.62 2.56,-4.44 0.8,-1.82 1.19,-4.72 1.19,-8.82l0 -0.34c0,-2.96 -0.11,-6.48 -0.34,-10.69 -0.23,-4.15 -1.02,-8.19 -2.39,-12 -1.37,-3.87 -3.53,-7.17 -6.48,-9.84 -2.96,-2.73 -7.05,-4.1 -12.29,-4.1 -5.46,0 -9.61,1.42 -12.46,4.27 -2.84,2.84 -4.95,6.2 -6.31,10.07 -1.37,3.87 -2.16,7.96 -2.39,12.29 -0.23,4.32 -0.34,7.96 -0.34,10.92l0 32.42c0,2.96 0.11,6.54 0.34,10.75 0.23,4.21 1.02,8.3 2.39,12.29 1.36,3.98 3.47,7.34 6.31,10.07 2.84,2.73 7,4.1 12.46,4.1 7.51,0 14.56,1.48 21.16,4.44 6.6,2.96 12.4,6.94 17.41,11.95 3.87,-4.55 8.76,-6.83 14.68,-6.83 3.87,0 7.05,0.8 9.56,2.39zm-85.32 -13.65c0.23,0.23 0.45,0.34 0.68,0.34l0.34 0.34 -0.34 -0.34c-0.23,0 -0.45,-0.11 -0.68,-0.34 0,-0.23 -0.34,-0.57 -1.02,-1.02 -0.23,-0.46 -0.4,-0.74 -0.51,-0.85 -0.11,-0.11 -0.28,-0.4 -0.51,-0.85 -1.14,-1.14 -2.05,-2.5 -2.73,-4.1 -1.14,-2.05 -2.05,-4.1 -2.73,-6.14 -0.91,-1.82 -1.71,-4.32 -2.39,-7.51 -0.46,-1.37 -0.8,-2.73 -1.02,-4.1 -0.23,-1.37 -0.45,-2.84 -0.68,-4.44 -0.23,-0.68 -0.34,-1.42 -0.34,-2.22 0,-0.8 -0.11,-1.65 -0.34,-2.56 0,-0.91 -0.11,-1.59 -0.34,-2.05l0 -2.39c-0.23,-1.82 -0.4,-3.47 -0.51,-4.95 -0.11,-1.48 -0.28,-3.13 -0.51,-4.95l0 -9.9 0 -4.78 0 -4.44c0.23,-1.59 0.4,-3.13 0.51,-4.61 0.11,-1.48 0.17,-2.9 0.17,-4.27 0.23,-1.37 0.4,-2.73 0.51,-4.1 0.11,-1.37 0.4,-2.62 0.85,-3.75 0.45,-2.73 0.91,-4.89 1.36,-6.48 0.23,-1.14 0.45,-2.05 0.68,-2.73 0.23,-0.68 0.57,-1.36 1.02,-2.05 0,-0.23 0.06,-0.4 0.17,-0.51 0.11,-0.11 0.17,-0.28 0.17,-0.51l0.68 -0.68c0.23,-0.23 0.34,-0.4 0.34,-0.51 0,-0.11 0.11,-0.28 0.34,-0.51 0.46,-0.46 0.68,-0.68 0.68,-0.68 0,-0.23 0.11,-0.34 0.34,-0.34 0,0 -0.11,0.11 -0.34,0.34 -0.46,0 -0.68,0.11 -0.68,0.34 -0.45,0.45 -0.85,0.85 -1.19,1.19 -0.34,0.34 -0.74,0.74 -1.19,1.19 -0.45,0.68 -0.91,1.36 -1.36,2.05 -0.45,0.68 -0.91,1.59 -1.36,2.73 -0.46,1.14 -0.91,2.22 -1.37,3.24 -0.45,1.02 -0.91,2.1 -1.36,3.24 -0.91,2.96 -1.48,5.57 -1.71,7.85 -0.46,1.59 -0.74,3.13 -0.85,4.61 -0.11,1.48 -0.28,3.01 -0.51,4.61 -0.23,0.68 -0.34,1.42 -0.34,2.22 0,0.8 -0.11,1.65 -0.34,2.56l0 4.78c-0.45,3.41 -0.45,6.83 0,10.24 0,1.82 0.06,3.47 0.17,4.95 0.11,1.48 0.28,3.13 0.51,4.95 0.45,2.28 0.8,3.87 1.02,4.78 0,1.36 0.23,2.96 0.68,4.78 0.45,1.59 0.91,3.13 1.36,4.61 0.46,1.48 0.91,2.9 1.36,4.27 0.46,1.82 0.91,3.19 1.37,4.1 0.45,0.68 0.74,1.31 0.85,1.88 0.11,0.57 0.4,1.19 0.85,1.88 0.91,2.05 2.16,3.98 3.75,5.8 1.59,2.05 2.84,3.3 3.75,3.75 0.23,0.46 0.45,0.74 0.68,0.85 0.23,0.11 0.45,0.28 0.68,0.51 0.91,0.45 1.37,0.68 1.37,0.68zm62.12 72.02l0 -3.75c-0.23,-0.91 -0.34,-2.16 -0.34,-3.75 0,-1.36 -0.06,-2.62 -0.17,-3.75 -0.11,-1.14 -0.28,-2.28 -0.51,-3.41 0,-0.68 -0.06,-1.31 -0.17,-1.88 -0.11,-0.57 -0.17,-1.08 -0.17,-1.54 0,-0.46 -0.06,-0.97 -0.17,-1.54 -0.11,-0.57 -0.17,-1.08 -0.17,-1.54 -0.23,-1.14 -0.4,-2.1 -0.51,-2.9 -0.11,-0.8 -0.28,-1.65 -0.51,-2.56 -0.23,-0.68 -0.46,-1.36 -0.68,-2.05 -0.23,-0.68 -0.46,-1.36 -0.68,-2.05 0,-0.23 -0.06,-0.45 -0.17,-0.68 -0.11,-0.23 -0.17,-0.46 -0.17,-0.68 -0.23,-0.23 -0.34,-0.57 -0.34,-1.02 -0.23,-0.23 -0.34,-0.45 -0.34,-0.68l-0.34 0 0.34 0.68 0 1.37 0 1.36c0.23,0.68 0.34,2.05 0.34,4.1l0 1.36 0 1.37 0 2.73 0 6.14 0 3.41 0 2.05 0 1.71 0 3.75 0 1.71 0 2.05c-0.23,1.36 -0.34,2.67 -0.34,3.92 0,1.25 0,2.56 0,3.92l0 1.71 0 2.05c-0.23,0.91 -0.34,2.16 -0.34,3.75 0,1.82 -0.11,3.07 -0.34,3.75l0 3.75c-0.23,1.14 -0.4,2.33 -0.51,3.58 -0.11,1.25 -0.17,2.45 -0.17,3.58 -0.23,0.23 -0.34,0.68 -0.34,1.37 0,0.91 -0.11,1.48 -0.34,1.71l0 1.71c0,0.23 -0.06,0.4 -0.17,0.51 -0.11,0.11 -0.17,0.4 -0.17,0.85 0,0.68 -0.11,1.14 -0.34,1.37l0 1.36c-0.23,0.23 -0.34,0.68 -0.34,1.36 0,0.23 -0.06,0.4 -0.17,0.51 -0.11,0.11 -0.17,0.28 -0.17,0.51 0,0.45 -0.11,0.8 -0.34,1.02 0,0.46 -0.11,0.8 -0.34,1.02l0 1.02c-0.23,0.23 -0.34,0.57 -0.34,1.02 -0.23,0.23 -0.34,0.45 -0.34,0.68 0,0.23 -0.11,0.46 -0.34,0.68 0,0.23 -0.06,0.4 -0.17,0.51 -0.11,0.11 -0.17,0.28 -0.17,0.51l-0.34 0.68 0.34 0c0,0 0.11,-0.23 0.34,-0.68l0.68 -0.68c0.45,-0.46 0.68,-0.91 0.68,-1.37 0.45,-0.45 0.68,-0.68 0.68,-0.68 0,-0.23 0.06,-0.4 0.17,-0.51 0.11,-0.11 0.17,-0.28 0.17,-0.51 0.23,-0.23 0.34,-0.4 0.34,-0.51 0,-0.11 0.11,-0.28 0.34,-0.51 0,-0.23 0.06,-0.4 0.17,-0.51 0.11,-0.11 0.17,-0.28 0.17,-0.51 0.23,-0.45 0.4,-0.85 0.51,-1.19 0.11,-0.34 0.28,-0.74 0.51,-1.19 0.23,-0.23 0.34,-0.46 0.34,-0.68 0,-0.23 0.11,-0.46 0.34,-0.68 0,-0.23 0.06,-0.45 0.17,-0.68 0.11,-0.23 0.17,-0.46 0.17,-0.68 0.45,-0.91 0.68,-1.36 0.68,-1.36 0,-0.68 0.11,-1.25 0.34,-1.71 0,-0.23 0.06,-0.46 0.17,-0.68 0.11,-0.23 0.17,-0.57 0.17,-1.02 0.23,-0.23 0.34,-0.68 0.34,-1.36 0.45,-1.14 0.74,-2.33 0.85,-3.58 0.11,-1.25 0.28,-2.45 0.51,-3.58 0.45,-1.14 0.68,-2.39 0.68,-3.75 0,-1.37 0.11,-2.73 0.34,-4.1 0.23,-1.14 0.34,-2.39 0.34,-3.75 0,-1.37 0.11,-2.73 0.34,-4.1l0 -7.85z"/>
  <path id="3" class="fil0" d="M577.41 218.36c0,2.05 -0.4,3.53 -1.19,4.44 -0.8,0.91 -1.65,1.88 -2.56,2.9 -0.91,1.02 -1.76,2.5 -2.56,4.44 -0.8,1.93 -1.19,4.83 -1.19,8.7 0,7.28 -1.42,14.16 -4.27,20.65 -2.84,6.48 -6.65,12.12 -11.43,16.89 -4.78,4.78 -10.41,8.59 -16.89,11.43 -6.48,2.84 -13.37,4.27 -20.65,4.27 -7.28,0 -14.11,-1.36 -20.48,-4.1 -6.37,-2.73 -11.95,-6.43 -16.72,-11.09 -4.78,-4.66 -8.59,-10.13 -11.43,-16.38 -2.84,-6.26 -4.38,-13.03 -4.61,-20.31l0 -63.14c-0.68,-7.05 -3.87,-12.17 -9.56,-15.36 3.19,-1.59 6.37,-2.39 9.56,-2.39l0 -11.6 0 -68.94c0.23,-7.28 1.76,-14.11 4.61,-20.48 2.84,-6.37 6.65,-11.89 11.43,-16.55 4.78,-4.66 10.35,-8.36 16.72,-11.09 6.37,-2.73 13.2,-4.1 20.48,-4.1 7.28,0 14.16,1.42 20.65,4.27 6.48,2.79 12.12,6.6 16.89,11.38 4.78,4.72 8.59,10.35 11.43,16.78 2.84,6.48 4.27,13.42 4.27,20.93 0,3.81 0.4,6.66 1.19,8.48 0.8,1.82 1.65,3.3 2.56,4.44 0.91,1.14 1.76,2.11 2.56,3.02 0.8,0.91 1.19,2.39 1.19,4.44l-17.75 0c-3.64,-0.45 -5.46,-2.39 -5.46,-5.8 0,3.41 -1.82,5.35 -5.46,5.8l-18.09 0c0,-2.05 0.4,-3.53 1.19,-4.44 0.8,-0.85 1.65,-1.88 2.56,-3.02 0.91,-1.14 1.76,-2.62 2.56,-4.44 0.8,-1.82 1.19,-4.72 1.19,-8.82l0 -0.34c0,-2.96 -0.11,-6.48 -0.34,-10.69 -0.23,-4.15 -1.02,-8.19 -2.39,-12 -1.31,-3.87 -3.47,-7.17 -6.43,-9.84 -2.9,-2.73 -7,-4.1 -12.17,-4.1 -5.4,0 -9.56,1.42 -12.34,4.27 -2.84,2.84 -4.95,6.2 -6.26,10.07 -1.37,3.87 -2.16,7.96 -2.39,12.29 -0.23,4.32 -0.34,7.96 -0.34,10.92l0 67.58 0 11.6c3.07,0 6.14,0.8 9.21,2.39 -5.46,3.19 -8.53,8.31 -9.21,15.36l0 61.78c0,2.96 0.11,6.54 0.34,10.75 0.23,4.21 1.02,8.3 2.39,12.29 1.31,3.98 3.41,7.34 6.26,10.07 2.79,2.73 6.94,4.1 12.34,4.1 5.18,0 9.27,-1.36 12.17,-4.1 2.96,-2.73 5.12,-6.03 6.43,-9.9 1.36,-3.87 2.16,-7.91 2.39,-12.12 0.23,-4.21 0.34,-7.79 0.34,-10.75 0,-4.1 -0.4,-7.11 -1.19,-9.04 -0.8,-1.93 -1.65,-3.41 -2.56,-4.44 -0.91,-1.02 -1.76,-1.99 -2.56,-2.9 -0.8,-0.91 -1.19,-2.39 -1.19,-4.44l18.09 0c3.64,0 5.46,1.82 5.46,5.46 0,-3.64 1.82,-5.46 5.46,-5.46l17.75 0zm-95.22 -59.39l0 -15.7c0,-1.37 -0.06,-2.73 -0.17,-4.1 -0.11,-1.37 -0.17,-2.62 -0.17,-3.75l0 -7.85c-0.23,-5.01 -0.34,-9.78 -0.34,-14.33 0,-4.55 -0.11,-8.87 -0.34,-12.97 -0.23,-2.05 -0.34,-3.92 -0.34,-5.63 0,-1.71 -0.11,-3.47 -0.34,-5.29 0,-1.59 -0.06,-3.13 -0.17,-4.61 -0.11,-1.48 -0.17,-2.79 -0.17,-3.92 0,-1.14 -0.06,-2.16 -0.17,-3.07 -0.11,-0.91 -0.17,-1.71 -0.17,-2.39l0 -1.71c-0.23,0 -0.34,0.11 -0.34,0.34l0 1.36c0,0.68 -0.06,1.48 -0.17,2.39 -0.11,0.91 -0.17,1.93 -0.17,3.07 0,1.14 -0.06,2.45 -0.17,3.92 -0.11,1.48 -0.17,3.01 -0.17,4.61 -0.23,1.82 -0.34,3.58 -0.34,5.29 0,1.71 -0.11,3.58 -0.34,5.63 -0.23,4.1 -0.34,8.42 -0.34,12.97 0,4.55 -0.11,9.33 -0.34,14.33l0 7.85c0,1.14 -0.06,2.39 -0.17,3.75 -0.11,1.36 -0.17,2.73 -0.17,4.1l0 15.7 0 16.04c0,0.68 0.06,1.37 0.17,2.05 0.11,0.68 0.17,1.25 0.17,1.71l0 4.1 0 7.51c0,2.5 0.06,4.95 0.17,7.34 0.11,2.39 0.17,4.72 0.17,7 0,2.5 0.06,4.84 0.17,7 0.11,2.16 0.17,4.15 0.17,5.97 0.23,2.05 0.34,3.98 0.34,5.8 0,1.82 0.11,3.53 0.34,5.12 0,1.82 0.06,3.41 0.17,4.78 0.11,1.36 0.17,2.62 0.17,3.75 0,1.14 0.06,2.16 0.17,3.07 0.11,0.91 0.17,1.71 0.17,2.39l0 1.71c0,0.23 0.11,0.34 0.34,0.34l0 -2.05c0,-0.68 0.06,-1.48 0.17,-2.39 0.11,-0.91 0.17,-1.93 0.17,-3.07 0,-1.14 0.06,-2.39 0.17,-3.75 0.11,-1.36 0.17,-2.96 0.17,-4.78 0.23,-1.59 0.34,-3.3 0.34,-5.12 0,-1.82 0.11,-3.75 0.34,-5.8 0,-1.82 0.06,-3.81 0.17,-5.97 0.11,-2.16 0.17,-4.49 0.17,-7 0,-2.28 0.06,-4.61 0.17,-7 0.11,-2.39 0.17,-4.84 0.17,-7.34l0 -7.51c0,-1.82 0.11,-3.19 0.34,-4.1l0 -3.75 0 -16.04z"/>
  <path id="4" class="fil0" d="M619.05 271.27c0,4.1 0.4,7.11 1.25,9.04 0.85,1.93 1.71,3.41 2.67,4.44 0.97,1.02 1.82,1.99 2.67,2.9 0.85,0.91 1.25,2.39 1.25,4.44l-18.03 0c-3.7,0 -5.52,-1.82 -5.52,-5.46 0,1.59 -0.57,2.9 -1.71,3.92 -1.14,1.02 -2.39,1.54 -3.75,1.54l-18.09 0c0,-2.05 0.4,-3.53 1.19,-4.44 0.8,-0.91 1.65,-1.88 2.56,-2.9 0.91,-1.02 1.76,-2.45 2.56,-4.27 0.8,-1.82 1.19,-4.66 1.19,-8.53l0 -94.88c-0.68,-7.05 -3.87,-12.17 -9.56,-15.36 3.19,-1.59 6.37,-2.39 9.56,-2.39l0 -112.63c0,-3.87 -0.4,-6.71 -1.19,-8.53 -0.8,-1.82 -1.65,-3.24 -2.56,-4.27 -0.91,-1.02 -1.76,-1.99 -2.56,-2.9 -0.8,-0.91 -1.19,-2.39 -1.19,-4.44l18.09 0c1.36,0 2.62,0.57 3.75,1.71 1.14,1.14 1.71,2.5 1.71,4.1 0,-1.59 0.51,-2.96 1.54,-4.1 1.08,-1.14 2.39,-1.71 3.98,-1.71l18.03 0c0,2.05 -0.4,3.53 -1.25,4.44 -0.85,0.91 -1.71,1.93 -2.67,3.07 -0.97,1.14 -1.82,2.62 -2.67,4.44 -0.85,1.82 -1.25,4.78 -1.25,8.87l0 111.95c3.19,0 6.37,0.8 9.56,2.39 -5.69,3.19 -8.87,8.31 -9.56,15.36l0 94.2zm-13.65 -93.52c0.23,-3.19 0.34,-6.26 0.34,-9.21 0,-2.96 0,-6.03 0,-9.22 0,-3.19 0,-6.26 0,-9.21 0,-2.96 -0.11,-6.03 -0.34,-9.21l0 -8.87 0 -8.87c-0.23,-5.69 -0.4,-11.21 -0.51,-16.55 -0.11,-5.35 -0.17,-10.3 -0.17,-14.85 -0.23,-2.28 -0.34,-4.49 -0.34,-6.66 0,-2.16 -0.11,-4.15 -0.34,-5.97 0,-1.82 -0.06,-3.53 -0.17,-5.12 -0.11,-1.59 -0.17,-3.07 -0.17,-4.44 -0.23,-1.36 -0.34,-2.56 -0.34,-3.58 0,-1.02 0,-1.88 0,-2.56 -0.23,-0.45 -0.34,-1.02 -0.34,-1.71l0 -0.68 0 2.39c0,0.68 -0.06,1.54 -0.17,2.56 -0.11,1.02 -0.17,2.22 -0.17,3.58 -0.23,1.36 -0.34,2.84 -0.34,4.44 0,1.59 0,3.3 0,5.12 -0.23,1.82 -0.34,3.81 -0.34,5.97 0,2.16 -0.11,4.38 -0.34,6.66 -0.23,4.55 -0.4,9.5 -0.51,14.85 -0.11,5.35 -0.17,10.86 -0.17,16.55 0,1.59 0,3.07 0,4.44 0,1.36 -0.11,2.84 -0.34,4.44l0 8.87 0 18.43 0 18.43 0 4.44 0 4.44c0.23,1.59 0.34,3.07 0.34,4.44 0,1.37 0,2.84 0,4.44 0,2.96 0,5.8 0,8.53 0,2.73 0.11,5.35 0.34,7.85 0,2.73 0.06,5.29 0.17,7.68 0.11,2.39 0.17,4.84 0.17,7.34 0,1.14 0.06,2.22 0.17,3.24 0.11,1.02 0.17,2.1 0.17,3.24l0 6.14c0.23,1.82 0.34,3.53 0.34,5.12 0,1.59 0.11,3.07 0.34,4.44 0,1.36 0.06,2.56 0.17,3.58 0.11,1.02 0.17,1.88 0.17,2.56l0 2.39 0 -0.68c0,-0.45 0.11,-1.02 0.34,-1.71 0,-0.68 0,-1.54 0,-2.56 0,-1.02 0.11,-2.22 0.34,-3.58 0,-1.36 0.06,-2.84 0.17,-4.44 0.11,-1.59 0.17,-3.3 0.17,-5.12 0,-1.14 0.06,-2.16 0.17,-3.07 0.11,-0.91 0.17,-1.93 0.17,-3.07 0,-1.14 0,-2.22 0,-3.24 0,-1.02 0.11,-2.11 0.34,-3.24 0,-2.5 0,-4.95 0,-7.34 0,-2.39 0.11,-4.95 0.34,-7.68 0,-2.5 0.06,-5.12 0.17,-7.85 0.11,-2.73 0.17,-5.57 0.17,-8.53l0 -8.87 0 -4.44 0 -4.44z"/>
  <path id="5" class="fil0" d="M745.68 271.27c0,4.1 0.4,7.11 1.25,9.04 0.85,1.93 1.71,3.41 2.67,4.44 0.97,1.02 1.82,1.99 2.67,2.9 0.85,0.91 1.25,2.39 1.25,4.44l-18.03 0c-3.7,0 -5.52,-1.82 -5.52,-5.46 0,3.64 -1.82,5.46 -5.46,5.46l-18.09 0 0 -0.34 -35.5 -213.31 0 80.89c3.19,0 6.31,0.8 9.5,2.39 -5.63,3.19 -8.82,8.31 -9.5,15.36l0 94.2c0,4.1 0.4,7.11 1.19,9.04 0.8,1.93 1.65,3.41 2.56,4.44 0.91,1.02 1.76,1.99 2.56,2.9 0.8,0.91 1.19,2.39 1.19,4.44l-17.75 0c-3.64,0 -5.46,-1.82 -5.46,-5.46 0,1.59 -0.57,2.9 -1.71,3.92 -1.19,1.02 -2.45,1.54 -3.81,1.54l-18.37 0c0,-2.05 0.4,-3.53 1.19,-4.44 0.8,-0.91 1.65,-1.88 2.56,-2.9 0.91,-1.02 1.76,-2.45 2.56,-4.27 0.8,-1.82 1.19,-4.66 1.19,-8.53l0 -94.88c-0.68,-7.05 -3.87,-12.17 -9.56,-15.36 3.19,-1.59 6.37,-2.39 9.56,-2.39l0 -112.63c0,-3.87 -0.4,-6.71 -1.19,-8.53 -0.8,-1.82 -1.65,-3.24 -2.56,-4.27 -0.91,-1.02 -1.76,-1.99 -2.56,-2.9 -0.8,-0.91 -1.19,-2.39 -1.19,-4.44l18.37 0c1.37,0 2.62,0.57 3.81,1.71 1.14,1.14 1.71,2.5 1.71,4.1 0,-1.59 0.51,-2.96 1.54,-4.1 1.02,-1.14 2.33,-1.71 3.87,-1.71l17.69 0 35.27 212.63 0 -62.12c-0.45,-6.83 -3.47,-11.94 -9.16,-15.36 3.07,-1.59 6.09,-2.39 9.16,-2.39l0 -112.63c0,-3.87 -0.4,-6.71 -1.19,-8.53 -0.8,-1.82 -1.65,-3.24 -2.56,-4.27 -0.91,-1.02 -1.76,-1.99 -2.56,-2.9 -0.8,-0.91 -1.19,-2.39 -1.19,-4.44l18.32 0c1.65,0 2.96,0.57 3.98,1.71 1.08,1.14 1.59,2.5 1.59,4.1 0,-1.59 0.51,-2.96 1.54,-4.1 1.08,-1.14 2.39,-1.71 3.98,-1.71l18.03 0c0,2.05 -0.4,3.53 -1.25,4.44 -0.85,0.91 -1.71,1.93 -2.67,3.07 -0.97,1.14 -1.82,2.62 -2.67,4.44 -0.85,1.82 -1.25,4.78 -1.25,8.87l0 111.95c3.19,0 6.37,0.8 9.56,2.39 -2.5,1.59 -4.61,3.75 -6.31,6.48 -1.71,2.73 -2.79,5.69 -3.24,8.87l0 94.2zm-88.06 -111.95l0 -18.43c0,-1.59 -0.06,-3.07 -0.17,-4.44 -0.11,-1.36 -0.17,-2.84 -0.17,-4.44l0 -8.87c-0.23,-5.69 -0.34,-11.21 -0.34,-16.55 0,-5.35 -0.11,-10.3 -0.34,-14.85 -0.23,-2.28 -0.34,-4.49 -0.34,-6.66 0,-2.16 -0.11,-4.15 -0.34,-5.97 0,-1.82 -0.06,-3.53 -0.17,-5.12 -0.11,-1.59 -0.17,-3.07 -0.17,-4.44 0,-1.36 -0.06,-2.56 -0.17,-3.58 -0.11,-1.02 -0.17,-1.88 -0.17,-2.56l0 -2.39c-0.23,0.23 -0.34,0.46 -0.34,0.68l0 1.71c0,0.68 -0.06,1.54 -0.17,2.56 -0.11,1.02 -0.17,2.22 -0.17,3.58 0,1.36 -0.06,2.84 -0.17,4.44 -0.11,1.59 -0.17,3.3 -0.17,5.12 -0.23,1.82 -0.34,3.81 -0.34,5.97 0,2.16 -0.11,4.38 -0.34,6.66 -0.23,4.55 -0.34,9.5 -0.34,14.85 0,5.35 -0.11,10.86 -0.34,16.55l0 8.87c0,1.59 0,3.07 0,4.44 0,1.36 -0.11,2.84 -0.34,4.44l0 18.43 0 18.43c0,0.68 0.06,1.42 0.17,2.22 0.11,0.8 0.17,1.54 0.17,2.22l0 4.44 0 8.87c0,2.96 0.06,5.8 0.17,8.53 0.11,2.73 0.17,5.35 0.17,7.85 0,2.73 0.06,5.29 0.17,7.68 0.11,2.39 0.17,4.84 0.17,7.34 0.23,1.14 0.34,2.22 0.34,3.24 0,1.02 0,2.1 0,3.24 0,1.14 0.06,2.16 0.17,3.07 0.11,0.91 0.17,1.93 0.17,3.07 0,1.82 0.06,3.53 0.17,5.12 0.11,1.59 0.17,3.07 0.17,4.44 0,1.36 0.06,2.56 0.17,3.58 0.11,1.02 0.17,1.88 0.17,2.56l0 1.71c0,0.23 0.11,0.45 0.34,0.68l0 -2.39c0,-0.68 0.06,-1.54 0.17,-2.56 0.11,-1.02 0.17,-2.22 0.17,-3.58 0,-1.36 0.06,-2.84 0.17,-4.44 0.11,-1.59 0.17,-3.3 0.17,-5.12 0.23,-1.14 0.34,-2.16 0.34,-3.07 0,-0.91 0,-1.93 0,-3.07 0,-1.14 0.06,-2.22 0.17,-3.24 0.11,-1.02 0.17,-2.11 0.17,-3.24 0,-2.5 0.06,-4.95 0.17,-7.34 0.11,-2.39 0.17,-4.95 0.17,-7.68 0,-2.5 0.06,-5.12 0.17,-7.85 0.11,-2.73 0.17,-5.57 0.17,-8.53l0 -8.87c0,-0.68 0,-1.42 0,-2.22 0,-0.8 0.11,-1.54 0.34,-2.22l0 -4.44 0 -18.43zm74.4 0l0 -18.43 0 -8.87c0,-1.59 0,-3.07 0,-4.44 0,-1.37 0,-2.84 0,-4.44 0,-5.69 -0.06,-11.21 -0.17,-16.55 -0.11,-5.35 -0.28,-10.3 -0.51,-14.85 -0.23,-2.28 -0.34,-4.49 -0.34,-6.66 0,-2.16 -0.11,-4.15 -0.34,-5.97 0,-1.82 0,-3.53 0,-5.12 0,-1.59 -0.11,-3.07 -0.34,-4.44 0,-1.36 -0.06,-2.56 -0.17,-3.58 -0.11,-1.02 -0.17,-1.88 -0.17,-2.56l-0.34 -2.39 0 0.68c0,0.23 0,0.45 -0.06,0.68 -0.06,0.23 -0.11,0.57 -0.11,1.02 0,0.68 0,1.54 0,2.56 0,1.02 -0.06,2.22 -0.17,3.58 0,1.36 -0.06,2.84 -0.17,4.44 -0.11,1.59 -0.17,3.3 -0.17,5.12 -0.23,1.82 -0.34,3.81 -0.34,5.97 0,2.16 -0.11,4.38 -0.34,6.66 0,4.55 -0.06,9.5 -0.17,14.85 -0.11,5.35 -0.28,10.86 -0.51,16.55l0 8.87 0 8.87c-0.23,3.19 -0.34,6.26 -0.34,9.21 0,2.96 0,6.03 0,9.21 0,3.19 0,6.26 0,9.22 0,2.96 0.11,6.03 0.34,9.21l0 4.44 0 4.44 0 8.87c0,2.96 0.06,5.8 0.17,8.53 0.11,2.73 0.17,5.35 0.17,7.85 0.23,2.73 0.34,5.29 0.34,7.68 0,2.39 0,4.84 0,7.34 0.23,1.14 0.34,2.22 0.34,3.24 0,1.02 0,2.1 0,3.24 0,1.14 0.06,2.16 0.17,3.07 0.11,0.91 0.17,1.93 0.17,3.07 0,1.82 0.06,3.53 0.17,5.12 0.11,1.59 0.17,3.07 0.17,4.44 0.23,1.36 0.34,2.56 0.34,3.58 0,1.02 0,1.88 0,2.56 0,0.45 0.06,0.8 0.17,1.02 0.11,0.23 0.17,0.46 0.17,0.68l0 0.68 -0.34 -2.39c0,-0.68 0.11,-1.54 0.34,-2.56 0.23,-1.02 0.34,-2.22 0.34,-3.58 0.23,-1.36 0.34,-2.84 0.34,-4.44 0,-1.59 0,-3.3 0,-5.12 0.23,-1.14 0.34,-2.16 0.34,-3.07 0,-0.91 0,-1.93 0,-3.07 0,-1.14 0.06,-2.22 0.17,-3.24 0.11,-1.02 0.17,-2.11 0.17,-3.24 0,-2.5 0.06,-4.95 0.17,-7.34 0.11,-2.39 0.17,-4.95 0.17,-7.68 0.23,-2.5 0.34,-5.12 0.34,-7.85 0,-2.73 0,-5.57 0,-8.53 0,-1.59 0,-3.07 0,-4.44 0,-1.36 0,-2.84 0,-4.44l0 -4.44 0 -4.44 0 -18.43z"/>
  <path id="6" class="fil0" d="M871.96 271.15c0,4.1 0.4,7.17 1.19,9.1 0.8,1.93 1.65,3.41 2.56,4.44 0.91,1.02 1.76,1.99 2.56,2.96 0.8,0.91 1.19,2.39 1.19,4.44l-13.99 0 -3.7 0 -10.92 0 -17.98 0 -41.87 0 -3.7 0c-3.64,0 -5.46,-1.82 -5.46,-5.46 0,1.59 -0.57,2.9 -1.71,3.92 -1.19,1.02 -2.45,1.54 -3.81,1.54l-18.37 0c0,-2.05 0.4,-3.53 1.19,-4.44 0.8,-0.91 1.65,-1.88 2.56,-2.9 0.91,-1.02 1.76,-2.45 2.56,-4.27 0.8,-1.82 1.19,-4.66 1.19,-8.53l0 -94.88c-0.68,-7.05 -3.87,-12.17 -9.56,-15.36 3.19,-1.59 6.37,-2.39 9.56,-2.39l0 -112.63c0,-3.87 -0.4,-6.71 -1.19,-8.53 -0.8,-1.82 -1.65,-3.24 -2.56,-4.27 -0.91,-1.02 -1.76,-1.99 -2.56,-2.9 -0.8,-0.91 -1.19,-2.39 -1.19,-4.44l18.37 0c1.37,0 2.62,0.57 3.81,1.71 1.14,1.14 1.71,2.5 1.71,4.1 0,-1.59 0.51,-2.96 1.54,-4.1 1.02,-1.14 2.33,-1.71 3.92,-1.71l3.7 0 13.99 0 27.87 0 17.98 0 10.92 0 3.7 0 13.99 0c0,2.05 -0.4,3.53 -1.19,4.44 -0.8,0.91 -1.65,1.93 -2.56,3.07 -0.91,1.14 -1.76,2.62 -2.56,4.44 -0.8,1.82 -1.19,4.78 -1.19,8.87l0 45.73c-7.96,0 -14.05,-1.54 -18.26,-4.61 -4.21,-3.07 -7.34,-6.54 -9.39,-10.41 -2.5,-4.32 -3.87,-9.44 -4.1,-15.36l0 -10.92c0,-2.5 -0.91,-4.66 -2.73,-6.48 -1.76,-1.82 -3.92,-2.73 -6.43,-2.73l-24.35 0c-2.5,0 -4.66,0.91 -6.43,2.73 -1.82,1.82 -2.73,3.98 -2.73,6.48l0 91.81c0,2.5 0.91,4.66 2.73,6.48 1.76,1.82 3.92,2.84 6.43,3.07l2.33 0c2.5,-0.23 4.61,-1.25 6.26,-3.07 1.71,-1.82 2.56,-3.98 2.56,-6.48l0 -0.34c0.23,-3.41 1.14,-6.37 2.73,-8.87 1.31,-2.28 3.36,-4.32 6.09,-6.14 2.67,-1.82 6.65,-2.73 11.83,-2.73l0 27.65 0 3.41 0 8.53 0 3.75 0 27.3c-5.18,0 -9.16,-0.85 -11.83,-2.56 -2.73,-1.71 -4.78,-3.7 -6.09,-5.97 -1.59,-2.5 -2.5,-5.46 -2.73,-8.87l0 -0.34c0,-2.5 -0.85,-4.66 -2.56,-6.48 -1.65,-1.82 -3.75,-2.84 -6.26,-3.07l-2.33 0c-2.5,0.23 -4.66,1.25 -6.43,3.07 -1.82,1.82 -2.73,3.98 -2.73,6.48l0 88.4c0,2.5 0.91,4.66 2.73,6.48 1.76,1.82 3.92,2.73 6.43,2.73l24.35 0c2.5,0 4.66,-0.91 6.43,-2.73 1.82,-1.88 2.73,-4.04 2.73,-6.54l0 -10.64c0.23,-5.75 1.59,-10.81 4.1,-15.13 2.05,-3.92 5.18,-7.45 9.39,-10.64 4.21,-3.24 10.3,-4.84 18.26,-4.84l0 45.62zm-87.71 -112l0 -18.43c0,-1.59 -0.06,-3.07 -0.17,-4.44 -0.11,-1.36 -0.17,-2.84 -0.17,-4.44l0 -8.87c-0.23,-5.69 -0.34,-11.21 -0.34,-16.55 0,-5.35 -0.11,-10.3 -0.34,-14.85 -0.23,-2.28 -0.34,-4.49 -0.34,-6.66 0,-2.16 -0.11,-4.15 -0.34,-5.97 0,-1.82 -0.06,-3.53 -0.17,-5.12 -0.11,-1.59 -0.17,-3.07 -0.17,-4.44 0,-1.36 -0.06,-2.56 -0.17,-3.58 -0.11,-1.02 -0.17,-1.88 -0.17,-2.56l0 -2.39c-0.23,0.23 -0.34,0.46 -0.34,0.68l0 1.71c0,0.68 -0.06,1.54 -0.17,2.56 -0.11,1.02 -0.17,2.22 -0.17,3.58 0,1.36 -0.06,2.84 -0.17,4.44 -0.11,1.59 -0.17,3.3 -0.17,5.12 -0.23,1.82 -0.34,3.81 -0.34,5.97 0,2.16 -0.11,4.38 -0.34,6.66 -0.23,4.55 -0.34,9.5 -0.34,14.85 0,5.35 -0.11,10.86 -0.34,16.55l0 8.87c0,1.59 0,3.07 0,4.44 0,1.36 -0.11,2.84 -0.34,4.44l0 18.43 0 18.43c0,0.68 0.06,1.42 0.17,2.22 0.11,0.8 0.17,1.54 0.17,2.22l0 4.44 0 8.87c0,2.96 0.06,5.8 0.17,8.53 0.11,2.73 0.17,5.35 0.17,7.85 0,2.73 0.06,5.29 0.17,7.68 0.11,2.39 0.17,4.84 0.17,7.34 0.23,1.14 0.34,2.22 0.34,3.24 0,1.02 0,2.1 0,3.24 0,1.14 0.06,2.16 0.17,3.07 0.11,0.91 0.17,1.93 0.17,3.07 0,1.82 0.06,3.53 0.17,5.12 0.11,1.59 0.17,3.07 0.17,4.44 0,1.36 0.06,2.56 0.17,3.58 0.11,1.02 0.17,1.88 0.17,2.56l0 1.71c0,0.23 0.11,0.45 0.34,0.68l0 -2.39c0,-0.68 0.06,-1.54 0.17,-2.56 0.11,-1.02 0.17,-2.22 0.17,-3.58 0,-1.36 0.06,-2.84 0.17,-4.44 0.11,-1.59 0.17,-3.3 0.17,-5.12 0.23,-1.14 0.34,-2.16 0.34,-3.07 0,-0.91 0,-1.93 0,-3.07 0,-1.14 0.06,-2.22 0.17,-3.24 0.11,-1.02 0.17,-2.11 0.17,-3.24 0,-2.5 0.06,-4.95 0.17,-7.34 0.11,-2.39 0.17,-4.95 0.17,-7.68 0,-2.5 0.06,-5.12 0.17,-7.85 0.11,-2.73 0.17,-5.57 0.17,-8.53l0 -8.87c0,-0.68 0,-1.42 0,-2.22 0,-0.8 0.11,-1.54 0.34,-2.22l0 -4.44 0 -18.43z"/>
  <path id="7" class="fil0" d="M1062.75 271.95c0,3.87 0.4,6.71 1.25,8.53 0.85,1.82 1.65,3.24 2.5,4.27 0.85,1.02 1.65,1.99 2.5,2.9 0.85,0.91 1.25,2.39 1.25,4.44l-18.03 0c-3.7,0 -5.52,-1.82 -5.52,-5.46 0,3.64 -1.88,5.46 -5.57,5.46l-18.32 0c0,-2.05 0.4,-3.53 1.19,-4.44 0.8,-0.91 1.65,-1.88 2.56,-2.9 0.91,-1.02 1.76,-2.5 2.56,-4.44 0.8,-1.93 1.19,-4.95 1.19,-9.04l0 -94.2c-0.4,-5.23 -2.16,-9.44 -5.29,-12.63l-28.44 127.65 -34.24 0 -0.34 0 -29.12 -128.33c-1.88,1.82 -3.41,3.81 -4.72,5.97 -1.31,2.16 -2.05,4.61 -2.28,7.34l0 94.2c0,4.1 0.4,7.11 1.19,9.04 0.8,1.93 1.65,3.41 2.56,4.44 0.91,1.02 1.76,1.99 2.56,2.9 0.8,0.91 1.19,2.39 1.19,4.44l-17.75 0c-3.64,0 -5.46,-1.82 -5.46,-5.46 0,1.59 -0.57,2.9 -1.71,3.92 -1.14,1.02 -2.39,1.54 -3.75,1.54l-18.09 0c0,-2.05 0.4,-3.53 1.19,-4.44 0.8,-0.91 1.65,-1.88 2.56,-2.9 0.91,-1.02 1.76,-2.45 2.56,-4.27 0.8,-1.82 1.19,-4.66 1.19,-8.53l0 -94.88c-0.68,-7.05 -3.87,-12.17 -9.56,-15.36 3.19,-1.59 6.37,-2.39 9.56,-2.39l0 -112.63c0,-3.87 -0.4,-6.71 -1.19,-8.53 -0.8,-1.82 -1.65,-3.24 -2.56,-4.27 -0.91,-1.02 -1.76,-1.99 -2.56,-2.9 -0.8,-0.91 -1.19,-2.39 -1.19,-4.44l18.09 0c1.36,0 2.62,0.57 3.75,1.71 1.14,1.14 1.71,2.5 1.71,4.1 0,-1.59 0.51,-2.96 1.54,-4.1 1.02,-1.14 2.33,-1.71 3.92,-1.71l17.86 0 45.62 192.15 44.03 -192.15 18.09 0c1.59,0 2.9,0.57 3.92,1.71 1.02,1.14 1.54,2.5 1.54,4.1 0,-1.59 0.51,-2.96 1.54,-4.1 1.08,-1.14 2.39,-1.71 3.98,-1.71l18.03 0c0,2.05 -0.4,3.53 -1.25,4.44 -0.85,0.91 -1.65,1.88 -2.5,2.9 -0.85,1.02 -1.65,2.45 -2.5,4.27 -0.85,1.82 -1.25,4.66 -1.25,8.53l0 112.63c1.82,0 3.47,0.23 4.95,0.68 1.48,0.46 3.01,1.02 4.61,1.71 -5.92,3.41 -9.1,8.53 -9.56,15.36l0 94.88zm-150.51 -94.2c0.23,-3.19 0.34,-6.26 0.34,-9.21 0,-2.96 0,-6.03 0,-9.22 0,-3.19 0,-6.26 0,-9.21 0,-2.96 -0.11,-6.03 -0.34,-9.21l0 -8.87 0 -8.87c-0.23,-5.69 -0.4,-11.21 -0.51,-16.55 -0.11,-5.35 -0.17,-10.3 -0.17,-14.85 -0.23,-2.28 -0.34,-4.49 -0.34,-6.66 0,-2.16 -0.11,-4.15 -0.34,-5.97 0,-1.82 -0.06,-3.53 -0.17,-5.12 -0.11,-1.59 -0.17,-3.07 -0.17,-4.44 -0.23,-1.36 -0.34,-2.56 -0.34,-3.58 0,-1.02 0,-1.88 0,-2.56 -0.23,-0.45 -0.34,-1.02 -0.34,-1.71l0 -0.68 0 2.39c0,0.68 -0.06,1.54 -0.17,2.56 -0.11,1.02 -0.17,2.22 -0.17,3.58 -0.23,1.36 -0.34,2.84 -0.34,4.44 0,1.59 0,3.3 0,5.12 -0.23,1.82 -0.34,3.81 -0.34,5.97 0,2.16 -0.11,4.38 -0.34,6.66 -0.23,4.55 -0.4,9.5 -0.51,14.85 -0.11,5.35 -0.17,10.86 -0.17,16.55 0,1.59 0,3.07 0,4.44 0,1.36 -0.11,2.84 -0.34,4.44l0 8.87 0 18.43 0 18.43 0 4.44 0 4.44c0.23,1.59 0.34,3.07 0.34,4.44 0,1.37 0,2.84 0,4.44 0,2.96 0,5.8 0,8.53 0,2.73 0.11,5.35 0.34,7.85 0,2.73 0.06,5.29 0.17,7.68 0.11,2.39 0.17,4.84 0.17,7.34 0,1.14 0.06,2.22 0.17,3.24 0.11,1.02 0.17,2.1 0.17,3.24l0 6.14c0.23,1.82 0.34,3.53 0.34,5.12 0,1.59 0.11,3.07 0.34,4.44 0,1.36 0.06,2.56 0.17,3.58 0.11,1.02 0.17,1.88 0.17,2.56l0 2.39 0 -0.68c0,-0.45 0.11,-1.02 0.34,-1.71 0,-0.68 0,-1.54 0,-2.56 0,-1.02 0.11,-2.22 0.34,-3.58 0,-1.36 0.06,-2.84 0.17,-4.44 0.11,-1.59 0.17,-3.3 0.17,-5.12 0,-1.14 0.06,-2.16 0.17,-3.07 0.11,-0.91 0.17,-1.93 0.17,-3.07 0,-1.14 0,-2.22 0,-3.24 0,-1.02 0.11,-2.11 0.34,-3.24 0,-2.5 0,-4.95 0,-7.34 0,-2.39 0.11,-4.95 0.34,-7.68 0,-2.5 0.06,-5.12 0.17,-7.85 0.11,-2.73 0.17,-5.57 0.17,-8.53l0 -8.87 0 -4.44 0 -4.44zm13.65 -18.43c1.65,0 3.64,0.23 5.97,0.68l-5.8 -25.26 -0.17 24.57zm43.17 91.81c0,0.45 0.06,0.8 0.17,1.02 0.11,0.23 0.17,0.46 0.17,0.68l0 0.34 0 -2.05c-0.23,-1.14 -0.57,-3.07 -1.02,-5.8 -0.23,-1.14 -0.46,-2.39 -0.68,-3.75 -0.23,-1.37 -0.57,-2.96 -1.02,-4.78 -0.23,-1.82 -0.51,-3.64 -0.85,-5.46 -0.34,-1.82 -0.74,-3.75 -1.19,-5.8 -0.45,-2.05 -0.91,-4.15 -1.36,-6.31 -0.45,-2.16 -0.91,-4.49 -1.36,-7 -0.68,-4.55 -1.71,-9.44 -3.07,-14.68 -0.23,-2.28 -0.8,-4.89 -1.71,-7.85 0,-0.91 -0.23,-2.28 -0.68,-4.1l-1.02 -4.1c-0.45,-2.5 -1.02,-5.12 -1.71,-7.85 -0.68,-2.73 -1.25,-5.46 -1.71,-8.19l-4.1 -16.38c-0.46,-1.37 -0.74,-2.73 -0.85,-4.1 -0.11,-1.37 -0.4,-2.62 -0.85,-3.75 -0.46,-1.37 -0.8,-2.67 -1.02,-3.92 -0.23,-1.25 -0.57,-2.56 -1.02,-3.92 -1.14,-5.23 -2.33,-10.13 -3.58,-14.68 -1.25,-4.55 -2.45,-8.87 -3.58,-12.97 -1.14,-4.1 -2.16,-7.85 -3.07,-11.26 -0.45,-1.59 -0.85,-3.07 -1.19,-4.44 -0.34,-1.37 -0.74,-2.62 -1.19,-3.75 -0.45,-1.14 -0.8,-2.22 -1.02,-3.24 -0.23,-1.02 -0.46,-1.76 -0.68,-2.22 -0.23,-0.45 -0.34,-0.91 -0.34,-1.36 0,-0.23 -0.11,-0.46 -0.34,-0.68l0 0.68c0,0.23 0.06,0.4 0.17,0.51 0.11,0.11 0.17,0.4 0.17,0.85 0.46,1.59 0.8,3.41 1.02,5.46 0.23,1.14 0.45,2.45 0.68,3.92 0.23,1.48 0.57,3.13 1.02,4.95 0.23,3.41 0.91,7.17 2.05,11.26 0.68,4.1 1.54,8.48 2.56,13.14 1.02,4.66 2.1,9.61 3.24,14.85 0.23,1.14 0.45,2.39 0.68,3.75 0.23,1.36 0.45,2.73 0.68,4.1 0.46,1.36 0.8,2.67 1.02,3.92 0.23,1.25 0.57,2.56 1.02,3.92 0.46,2.73 1.02,5.46 1.71,8.19 0.68,2.73 1.25,5.46 1.71,8.19 0.68,2.73 1.37,5.46 2.05,8.19 0.68,2.73 1.37,5.35 2.05,7.85 0,0.91 0.23,2.28 0.68,4.1l1.02 4.1c0.46,1.14 0.8,2.39 1.02,3.75 0.23,1.36 0.57,2.62 1.02,3.75 0.91,4.78 2.16,9.67 3.75,14.68 0.45,2.5 1.02,4.84 1.71,7 0.68,2.16 1.25,4.27 1.71,6.31 0.45,2.05 0.97,3.92 1.54,5.63 0.57,1.71 1.08,3.47 1.54,5.29 0.46,1.82 0.85,3.41 1.19,4.78 0.34,1.36 0.74,2.62 1.19,3.75 0.45,1.14 0.8,2.16 1.02,3.07 0.23,0.91 0.45,1.71 0.68,2.39zm55.46 -155.98c0.46,-1.82 0.74,-3.47 0.85,-4.95 0.11,-1.48 0.4,-2.79 0.85,-3.92 0.23,-1.14 0.4,-2.16 0.51,-3.07 0.11,-0.91 0.17,-1.71 0.17,-2.39 0,-0.45 0.06,-0.74 0.17,-0.85 0.11,-0.11 0.17,-0.28 0.17,-0.51l0 -0.68c-0.23,0.23 -0.34,0.46 -0.34,0.68 0,0.23 -0.06,0.4 -0.17,0.51 -0.11,0.11 -0.17,0.4 -0.17,0.85 -0.23,0.46 -0.4,1.19 -0.51,2.22 -0.11,1.02 -0.4,2.1 -0.85,3.24 -0.46,1.14 -0.85,2.39 -1.19,3.75 -0.34,1.36 -0.74,2.84 -1.19,4.44 -1.14,3.41 -2.16,7.17 -3.07,11.26 -1.14,4.1 -2.28,8.42 -3.41,12.97 -1.14,4.55 -2.28,9.44 -3.41,14.68 -0.45,1.36 -0.8,2.67 -1.02,3.92 -0.23,1.25 -0.45,2.56 -0.68,3.92 -0.46,1.14 -0.8,2.39 -1.02,3.75 -0.23,1.36 -0.57,2.73 -1.02,4.1 -0.46,2.73 -1.02,5.46 -1.71,8.19 -0.68,2.73 -1.37,5.46 -2.05,8.19 -0.46,2.73 -1.02,5.46 -1.71,8.19 -0.68,2.73 -1.25,5.35 -1.71,7.85 -0.45,1.82 -0.68,3.19 -0.68,4.1l-1.02 4.1c-0.23,1.14 -0.45,2.39 -0.68,3.75 -0.23,1.36 -0.57,2.73 -1.02,4.1 -0.45,2.5 -0.91,4.95 -1.36,7.34 -0.46,2.39 -0.91,4.84 -1.36,7.34 -0.46,2.5 -0.85,4.84 -1.19,7 -0.34,2.16 -0.74,4.27 -1.19,6.31 -1.14,4.1 -1.82,7.85 -2.05,11.26 -0.46,1.82 -0.74,3.41 -0.85,4.78 -0.11,1.36 -0.28,2.62 -0.51,3.75 -0.46,1.14 -0.68,2.22 -0.68,3.24 0,1.02 -0.11,1.88 -0.34,2.56 -0.23,0.45 -0.34,1.02 -0.34,1.71l0 0.34c0.23,0 0.34,-0.11 0.34,-0.34 0,-0.68 0.11,-1.25 0.34,-1.71 0.23,-0.68 0.4,-1.48 0.51,-2.39 0.11,-0.91 0.4,-1.93 0.85,-3.07 0.46,-1.14 0.85,-2.39 1.19,-3.75 0.34,-1.37 0.74,-2.96 1.19,-4.78 0.45,-1.82 0.97,-3.58 1.54,-5.29 0.57,-1.71 1.08,-3.58 1.54,-5.63 0.46,-2.05 0.97,-4.15 1.54,-6.31 0.57,-2.16 1.19,-4.49 1.88,-7 0.45,-2.28 1.02,-4.66 1.71,-7.17 0.68,-2.5 1.25,-5.01 1.71,-7.51 0.45,-1.14 0.8,-2.39 1.02,-3.75 0.23,-1.37 0.57,-2.62 1.02,-3.75 0,-0.91 0.23,-2.28 0.68,-4.1l1.02 -4.1c0.68,-2.5 1.31,-5.12 1.88,-7.85 0.57,-2.73 1.19,-5.46 1.88,-8.19 0.46,-2.73 1.02,-5.46 1.71,-8.19 0.68,-2.73 1.25,-5.46 1.71,-8.19 0.46,-1.36 0.74,-2.73 0.85,-4.1 0.11,-1.36 0.4,-2.62 0.85,-3.75 0.23,-2.28 0.8,-4.89 1.71,-7.85 1.14,-5.23 2.1,-10.18 2.9,-14.85 0.8,-4.66 1.54,-9.04 2.22,-13.14 0.91,-4.1 1.59,-7.85 2.05,-11.26zm5.8 42.32l-4.78 22.53c0.91,-0.45 2.5,-0.68 4.78,-0.68l0 -21.84zm18.43 21.84l0 -18.43 0 -8.87 0 -8.87c-0.17,-5.69 -0.28,-11.21 -0.34,-16.55 -0.06,-5.35 -0.17,-10.3 -0.34,-14.85 0,-2.28 -0.06,-4.49 -0.17,-6.66 -0.11,-2.16 -0.17,-4.15 -0.17,-5.97 0,-1.82 -0.06,-3.53 -0.17,-5.12 -0.11,-1.59 -0.17,-3.07 -0.17,-4.44 -0.23,-1.36 -0.34,-2.56 -0.34,-3.58 0,-1.02 0,-1.88 0,-2.56 -0.23,-0.45 -0.34,-1.02 -0.34,-1.71l0 -0.68 -0.34 2.39c0,0.68 0,1.54 0,2.56 0,1.02 0,2.22 0,3.58 -0.23,1.36 -0.34,2.84 -0.34,4.44 0,1.59 -0.11,3.3 -0.34,5.12 0,1.82 -0.06,3.81 -0.17,5.97 -0.11,2.16 -0.17,4.38 -0.17,6.66 -0.23,4.55 -0.4,9.5 -0.51,14.85 -0.11,5.35 -0.17,10.86 -0.17,16.55 0,1.59 -0.06,3.07 -0.17,4.44 -0.11,1.36 -0.17,2.84 -0.17,4.44l0 8.87 0 18.43 0 18.43 0 4.44 0 4.44c0,1.59 0.06,3.07 0.17,4.44 0.11,1.37 0.17,2.84 0.17,4.44 0,2.96 0,5.8 0,8.53 0,2.73 0.11,5.35 0.34,7.85 0,2.73 0.06,5.29 0.17,7.68 0.11,2.39 0.17,4.84 0.17,7.34 0,1.14 0,2.22 0,3.24 0,1.02 0.11,2.1 0.34,3.24l0 6.14c0.23,1.82 0.34,3.53 0.34,5.12 0,1.59 0.11,3.07 0.34,4.44 0,1.36 0.06,2.56 0.17,3.58 0.11,1.02 0.17,1.88 0.17,2.56l-0.34 2.39 0 -0.68c0,-0.45 0.17,-1.02 0.51,-1.71 0,-0.68 0,-1.54 0,-2.56 0,-1.02 0.17,-2.22 0.51,-3.58 0,-1.36 0.06,-2.84 0.17,-4.44 0.11,-1.59 0.17,-3.3 0.17,-5.12 0,-1.14 0,-2.16 0,-3.07 0,-0.91 0.11,-1.93 0.34,-3.07l-0.34 -6.48c0.34,-2.5 0.51,-4.95 0.51,-7.34 0,-2.39 0.17,-4.95 0.51,-7.68 0,-2.5 0,-5.12 0,-7.85 0,-2.73 0,-5.57 0,-8.53l0 -8.87 0 -4.44 0 -4.44 0 -18.43z"/>
  <path id="8" class="fil0" d="M1212.58 274.68c0.68,2.96 1.54,5.18 2.56,6.66 1.02,1.48 2.05,2.73 3.07,3.75 1.02,1.02 1.93,1.99 2.73,2.9 0.8,0.91 1.42,2.28 1.88,4.1l-17.75 0c-1.59,-0.23 -3.01,-0.85 -4.27,-1.88 -1.25,-1.02 -1.99,-2.33 -2.22,-3.92 0.46,3.41 -1.02,5.35 -4.44,5.8l-18.09 0c-0.23,-1.36 -0.11,-2.73 0.34,-4.1 0.45,-1.36 0.97,-2.84 1.54,-4.44 0.57,-1.59 1.08,-3.36 1.54,-5.29 0.45,-1.93 0.57,-4.27 0.34,-7l-8.87 -51.2c-0.68,-2.28 -1.99,-4.21 -3.92,-5.8 -1.93,-1.59 -4.15,-2.39 -6.65,-2.39l-24.92 0c-2.28,0 -4.38,0.8 -6.31,2.39 -1.93,1.59 -3.36,3.53 -4.27,5.8l-8.53 51.2c-0.68,4.1 -0.85,7.05 -0.51,8.87 0.34,1.82 0.85,3.3 1.54,4.44 0.68,1.14 1.31,2.16 1.88,3.07 0.57,0.91 0.74,2.39 0.51,4.44l-18.09 0c-1.36,0 -2.5,-0.57 -3.41,-1.71 -0.91,-1.14 -1.25,-2.5 -1.02,-4.1 -0.23,1.59 -0.97,2.96 -2.22,4.1 -1.25,1.14 -2.67,1.71 -4.27,1.71l-17.75 0c0.23,-1.82 0.8,-3.19 1.71,-4.1 0.91,-0.91 1.88,-1.82 2.9,-2.73 1.02,-0.91 2.05,-2.11 3.07,-3.58 1.02,-1.48 1.99,-3.81 2.9,-7l18.09 -103.07c-0.68,-4.55 -2.84,-7.85 -6.48,-9.9 3.19,-1.59 6.03,-2.39 8.53,-2.39l19.8 -111.95c0.68,-4.1 0.8,-7.11 0.34,-9.04 -0.45,-1.93 -1.02,-3.41 -1.71,-4.44 -0.68,-1.02 -1.36,-1.99 -2.05,-2.9 -0.68,-0.91 -0.8,-2.39 -0.34,-4.44l23.55 0c3.19,0.45 4.78,2.28 4.78,5.46 0,-1.36 0.51,-2.62 1.54,-3.75 1.02,-1.14 2.22,-1.71 3.58,-1.71l23.21 0c0.23,1.36 0.11,2.73 -0.34,4.1 -0.46,1.36 -1.02,2.84 -1.71,4.44 -0.68,1.59 -1.25,3.36 -1.71,5.29 -0.45,1.93 -0.45,4.27 0,7l19.45 111.95c2.73,0 5.69,0.8 8.87,2.39 -3.64,2.05 -5.8,5.35 -6.48,9.9l18.09 103.07zm-76.11 -205.12c0.23,-1.36 0.4,-2.56 0.51,-3.58 0.11,-1.02 0.17,-1.99 0.17,-2.9 0,-0.45 0.06,-0.74 0.17,-0.85 0.11,-0.11 0.17,-0.28 0.17,-0.51l0 -0.68c-0.23,0.23 -0.34,0.46 -0.34,0.68 0,0.23 -0.06,0.4 -0.17,0.51 -0.11,0.11 -0.17,0.4 -0.17,0.85 -0.23,0.68 -0.4,1.54 -0.51,2.56 -0.11,1.02 -0.4,2.22 -0.85,3.58 -0.68,2.5 -1.65,6.88 -2.9,13.14 -1.25,6.26 -2.56,12.97 -3.92,20.14 -1.37,7.17 -2.79,14.28 -4.27,21.33 -1.48,7.05 -2.67,12.63 -3.58,16.72 -0.68,2.96 -1.31,5.92 -1.88,8.87 -0.57,2.96 -1.08,6.03 -1.54,9.22 -0.23,1.36 -0.85,4.84 -1.88,10.41 -1.02,5.57 -2.05,11.43 -3.07,17.58 -1.02,6.14 -1.93,11.77 -2.73,16.89 -0.8,5.12 -1.19,7.79 -1.19,8.02 -0.68,3.87 -1.25,7.51 -1.71,10.92 -0.46,3.41 -1.02,6.94 -1.71,10.58 0,1.14 -0.06,2.16 -0.17,3.07 -0.11,0.91 -0.28,1.93 -0.51,3.07 -0.45,1.82 -0.74,3.58 -0.85,5.29 -0.11,1.71 -0.28,3.24 -0.51,4.61 -0.23,1.36 -0.4,2.56 -0.51,3.58 -0.11,1.02 -0.17,1.88 -0.17,2.56 -0.23,0.45 -0.34,1.02 -0.34,1.71l0 0.68c0.23,-0.23 0.34,-0.46 0.34,-0.68 0,-0.68 0.11,-1.25 0.34,-1.71 0.23,-0.68 0.4,-1.54 0.51,-2.56 0.11,-1.02 0.4,-2.22 0.85,-3.58 0.23,-0.68 0.68,-2.79 1.37,-6.31 0.68,-3.53 1.48,-7.39 2.39,-11.6 0.91,-4.21 1.76,-8.19 2.56,-11.95 0.8,-3.75 1.42,-6.09 1.88,-7 0.23,-1.14 0.85,-4.44 1.88,-9.9 1.02,-5.46 2.1,-11.26 3.24,-17.41 1.14,-6.14 2.22,-11.77 3.24,-16.89 1.02,-5.12 1.54,-7.91 1.54,-8.36 0.46,-3.19 1.02,-6.26 1.71,-9.21 0.68,-2.96 1.25,-6.03 1.71,-9.21l10.92 -71.67zm20.14 126.28c2.5,0 4.49,-0.91 5.97,-2.73 1.48,-1.82 1.99,-3.98 1.54,-6.48l-1.36 -7.17c0,-0.45 -0.11,-0.91 -0.34,-1.36 -0.46,-3.41 -1.88,-6.54 -4.27,-9.39 -2.39,-2.84 -5.18,-5.18 -8.36,-7 2.96,-1.82 6.03,-2.73 9.21,-2.73 0.23,0 0.46,0.06 0.68,0.17 0.23,0.11 0.45,0.17 0.68,0.17l-12.29 -70.31 -12.29 70.31c0.23,0 0.4,-0.06 0.51,-0.17 0.11,-0.11 0.28,-0.17 0.51,-0.17 3.64,0 6.71,0.91 9.21,2.73 -7.05,3.64 -11.26,9.1 -12.63,16.38 0,0.68 -0.11,1.14 -0.34,1.36l-1.37 7.17c-0.45,2.5 0.06,4.66 1.54,6.48 1.48,1.82 3.47,2.73 5.97,2.73l17.41 0zm36.52 59.39c0,0.45 0.06,0.8 0.17,1.02 0.11,0.23 0.17,0.46 0.17,0.68l0 0.34 0 -0.34c0,-0.23 -0.06,-0.45 -0.17,-0.68 -0.11,-0.23 -0.17,-0.57 -0.17,-1.02 0,-0.68 -0.06,-1.59 -0.17,-2.73 -0.11,-1.14 -0.28,-2.39 -0.51,-3.75 -0.23,-1.14 -0.4,-2.56 -0.51,-4.27 -0.11,-1.71 -0.4,-3.47 -0.85,-5.29 0,-1.14 -0.06,-2.16 -0.17,-3.07 -0.11,-0.91 -0.28,-1.93 -0.51,-3.07 -0.23,-1.14 -0.4,-2.22 -0.51,-3.24 -0.11,-1.02 -0.28,-2.11 -0.51,-3.24 -0.45,-2.5 -0.8,-4.95 -1.02,-7.34 -0.23,-2.39 -0.57,-4.95 -1.02,-7.68 -0.45,-2.73 -0.91,-5.46 -1.36,-8.19 -0.46,-2.73 -0.91,-5.57 -1.37,-8.53 0,-0.91 -0.34,-3.24 -1.02,-7 -0.68,-3.75 -1.36,-7.74 -2.05,-11.95 -0.68,-4.21 -1.36,-8.02 -2.05,-11.43 -0.68,-3.41 -1.02,-5.35 -1.02,-5.8 -0.46,-3.19 -0.97,-6.26 -1.54,-9.22 -0.57,-2.96 -1.19,-5.92 -1.88,-8.87 -0.45,-2.96 -0.97,-5.92 -1.54,-8.87 -0.57,-2.96 -1.19,-5.92 -1.88,-8.87 -1.14,-5.92 -2.22,-11.49 -3.24,-16.72 -1.02,-5.23 -1.99,-10.13 -2.9,-14.68 -0.91,-3.87 -1.76,-7.62 -2.56,-11.26 -0.8,-3.64 -1.65,-7.28 -2.56,-10.92 -0.23,-1.36 -0.46,-2.56 -0.68,-3.58 -0.23,-1.02 -0.45,-1.88 -0.68,-2.56 -0.23,-0.45 -0.34,-0.91 -0.34,-1.36 0,-0.23 -0.11,-0.46 -0.34,-0.68l0 0.68c0,0.23 0.06,0.4 0.17,0.51 0.11,0.11 0.17,0.4 0.17,0.85 0.23,0.91 0.34,1.88 0.34,2.9 0,1.02 0.11,2.22 0.34,3.58 0.46,3.41 0.97,7 1.54,10.75 0.57,3.75 1.08,7.57 1.54,11.43 1.36,9.56 3.07,20.14 5.12,31.74 0.46,2.96 0.91,5.92 1.36,8.87 0.46,2.96 0.91,5.92 1.37,8.87 0.45,3.19 0.97,6.26 1.54,9.21 0.57,2.96 1.19,6.03 1.88,9.21 0.23,1.59 0.63,4.04 1.19,7.34 0.57,3.3 1.19,6.77 1.88,10.41 0.68,3.64 1.37,7.17 2.05,10.58 0.68,3.41 1.14,5.92 1.37,7.51 0.68,2.96 1.31,5.86 1.88,8.7 0.57,2.84 1.08,5.52 1.54,8.02 0.45,2.5 0.97,5.01 1.54,7.51 0.57,2.5 1.08,4.89 1.54,7.17 0.23,1.14 0.46,2.28 0.68,3.41 0.23,1.14 0.45,2.28 0.68,3.41 0.23,1.14 0.45,2.1 0.68,2.9 0.23,0.8 0.46,1.76 0.68,2.9 0.45,1.82 0.85,3.53 1.19,5.12 0.34,1.59 0.63,3.07 0.85,4.44 0.45,1.36 0.8,2.56 1.02,3.58 0.23,1.02 0.46,1.88 0.68,2.56z"/>
  <path id="9" class="fil0" d="M1331.69 161.71c-6.37,3.64 -9.56,9.22 -9.56,16.72l0 1.36 0 12.29 0 10.92 0 0.34 0 36.86c-0.23,7.28 -1.76,14.05 -4.61,20.31 -2.84,6.26 -6.66,11.72 -11.43,16.38 -4.78,4.66 -10.35,8.36 -16.72,11.09 -6.37,2.73 -13.2,4.1 -20.48,4.1 -7.28,0 -14.16,-1.42 -20.65,-4.27 -6.48,-2.84 -12.12,-6.65 -16.89,-11.43 -4.78,-4.78 -8.59,-10.41 -11.43,-16.89 -2.84,-6.48 -4.27,-13.37 -4.27,-20.65 0,-3.87 -0.4,-6.77 -1.19,-8.7 -0.8,-1.93 -1.65,-3.41 -2.56,-4.44 -0.91,-1.02 -1.76,-1.99 -2.56,-2.9 -0.8,-0.91 -1.19,-2.39 -1.19,-4.44l17.75 0c3.64,0 5.46,1.82 5.46,5.46 0,-1.59 0.57,-2.9 1.71,-3.92 1.14,-1.02 2.39,-1.54 3.75,-1.54l18.09 0c0,2.05 -0.4,3.53 -1.19,4.44 -0.8,0.91 -1.65,1.88 -2.56,2.9 -0.91,1.02 -1.76,2.5 -2.56,4.44 -0.8,1.93 -1.19,4.95 -1.19,9.04 0,2.96 0.11,6.54 0.34,10.75 0.23,4.21 1.02,8.25 2.39,12.12 1.36,3.87 3.53,7.17 6.48,9.9 2.96,2.73 7.05,4.1 12.29,4.1 5.46,0 9.61,-1.36 12.46,-4.1 2.84,-2.73 4.95,-6.09 6.31,-10.07 1.36,-3.98 2.16,-8.08 2.39,-12.29 0.23,-4.21 0.34,-7.79 0.34,-10.75l0 -36.86c0,-2.96 -0.17,-6.54 -0.51,-10.75 -0.34,-4.21 -1.19,-8.19 -2.56,-11.95 -1.36,-3.75 -3.47,-6.94 -6.31,-9.56 -2.84,-2.62 -6.88,-3.92 -12.12,-3.92 -7.28,0 -14.11,-1.36 -20.48,-4.1 -6.37,-2.73 -11.95,-6.43 -16.72,-11.09 -4.78,-4.66 -8.59,-10.18 -11.43,-16.55 -2.84,-6.37 -4.38,-13.2 -4.61,-20.48l0 -34.81c0.23,-7.28 1.76,-14.11 4.61,-20.48 2.84,-6.37 6.65,-11.89 11.43,-16.55 4.78,-4.66 10.35,-8.36 16.72,-11.09 6.37,-2.73 13.2,-4.1 20.48,-4.1 7.28,0 14.16,1.42 20.65,4.27 6.48,2.79 12.12,6.6 16.89,11.38 4.78,4.72 8.59,10.35 11.43,16.78 2.84,6.48 4.27,13.42 4.27,20.93 0,3.81 0.4,6.66 1.19,8.48 0.8,1.82 1.65,3.3 2.56,4.44 0.91,1.14 1.76,2.11 2.56,3.02 0.8,0.91 1.19,2.39 1.19,4.44l-17.75 0c-1.59,-0.23 -2.96,-0.74 -4.1,-1.54 -1.14,-0.8 -1.71,-1.99 -1.71,-3.58 0,2.96 -1.82,4.66 -5.46,5.12l-17.75 0c0,-2.05 0.4,-3.53 1.19,-4.44 0.8,-0.85 1.65,-1.88 2.56,-3.02 0.91,-1.14 1.76,-2.62 2.56,-4.44 0.8,-1.82 1.19,-4.72 1.19,-8.82l0 -0.34c0,-2.96 -0.11,-6.48 -0.34,-10.69 -0.23,-4.15 -1.02,-8.19 -2.39,-12 -1.37,-3.87 -3.53,-7.17 -6.48,-9.84 -2.96,-2.73 -7.05,-4.1 -12.29,-4.1 -5.46,0 -9.61,1.42 -12.46,4.27 -2.84,2.84 -4.95,6.2 -6.31,10.07 -1.37,3.87 -2.16,7.96 -2.39,12.29 -0.23,4.32 -0.34,7.96 -0.34,10.92l0 32.42c0,2.96 0.11,6.54 0.34,10.75 0.23,4.21 1.02,8.3 2.39,12.29 1.36,3.98 3.47,7.34 6.31,10.07 2.84,2.73 7,4.1 12.46,4.1 7.51,0 14.56,1.48 21.16,4.44 6.6,2.96 12.4,6.94 17.41,11.95 3.87,-4.55 8.76,-6.83 14.68,-6.83 3.87,0 7.05,0.8 9.56,2.39zm-85.32 -13.65c0.23,0.23 0.45,0.34 0.68,0.34l0.34 0.34 -0.34 -0.34c-0.23,0 -0.45,-0.11 -0.68,-0.34 0,-0.23 -0.34,-0.57 -1.02,-1.02 -0.23,-0.46 -0.4,-0.74 -0.51,-0.85 -0.11,-0.11 -0.28,-0.4 -0.51,-0.85 -1.14,-1.14 -2.05,-2.5 -2.73,-4.1 -1.14,-2.05 -2.05,-4.1 -2.73,-6.14 -0.91,-1.82 -1.71,-4.32 -2.39,-7.51 -0.46,-1.37 -0.8,-2.73 -1.02,-4.1 -0.23,-1.37 -0.45,-2.84 -0.68,-4.44 -0.23,-0.68 -0.34,-1.42 -0.34,-2.22 0,-0.8 -0.11,-1.65 -0.34,-2.56 0,-0.91 -0.11,-1.59 -0.34,-2.05l0 -2.39c-0.23,-1.82 -0.4,-3.47 -0.51,-4.95 -0.11,-1.48 -0.28,-3.13 -0.51,-4.95l0 -9.9 0 -4.78 0 -4.44c0.23,-1.59 0.4,-3.13 0.51,-4.61 0.11,-1.48 0.17,-2.9 0.17,-4.27 0.23,-1.37 0.4,-2.73 0.51,-4.1 0.11,-1.37 0.4,-2.62 0.85,-3.75 0.45,-2.73 0.91,-4.89 1.36,-6.48 0.23,-1.14 0.45,-2.05 0.68,-2.73 0.23,-0.68 0.57,-1.36 1.02,-2.05 0,-0.23 0.06,-0.4 0.17,-0.51 0.11,-0.11 0.17,-0.28 0.17,-0.51l0.68 -0.68c0.23,-0.23 0.34,-0.4 0.34,-0.51 0,-0.11 0.11,-0.28 0.34,-0.51 0.46,-0.46 0.68,-0.68 0.68,-0.68 0,-0.23 0.11,-0.34 0.34,-0.34 0,0 -0.11,0.11 -0.34,0.34 -0.46,0 -0.68,0.11 -0.68,0.34 -0.45,0.45 -0.85,0.85 -1.19,1.19 -0.34,0.34 -0.74,0.74 -1.19,1.19 -0.45,0.68 -0.91,1.36 -1.36,2.05 -0.45,0.68 -0.91,1.59 -1.36,2.73 -0.46,1.14 -0.91,2.22 -1.37,3.24 -0.45,1.02 -0.91,2.1 -1.36,3.24 -0.91,2.96 -1.48,5.57 -1.71,7.85 -0.46,1.59 -0.74,3.13 -0.85,4.61 -0.11,1.48 -0.28,3.01 -0.51,4.61 -0.23,0.68 -0.34,1.42 -0.34,2.22 0,0.8 -0.11,1.65 -0.34,2.56l0 4.78c-0.45,3.41 -0.45,6.83 0,10.24 0,1.82 0.06,3.47 0.17,4.95 0.11,1.48 0.28,3.13 0.51,4.95 0.45,2.28 0.8,3.87 1.02,4.78 0,1.36 0.23,2.96 0.68,4.78 0.45,1.59 0.91,3.13 1.36,4.61 0.46,1.48 0.91,2.9 1.36,4.27 0.46,1.82 0.91,3.19 1.37,4.1 0.45,0.68 0.74,1.31 0.85,1.88 0.11,0.57 0.4,1.19 0.85,1.88 0.91,2.05 2.16,3.98 3.75,5.8 1.59,2.05 2.84,3.3 3.75,3.75 0.23,0.46 0.45,0.74 0.68,0.85 0.23,0.11 0.45,0.28 0.68,0.51 0.91,0.45 1.37,0.68 1.37,0.68zm62.12 72.02l0 -3.75c-0.23,-0.91 -0.34,-2.16 -0.34,-3.75 0,-1.36 -0.06,-2.62 -0.17,-3.75 -0.11,-1.14 -0.28,-2.28 -0.51,-3.41 0,-0.68 -0.06,-1.31 -0.17,-1.88 -0.11,-0.57 -0.17,-1.08 -0.17,-1.54 0,-0.46 -0.06,-0.97 -0.17,-1.54 -0.11,-0.57 -0.17,-1.08 -0.17,-1.54 -0.23,-1.14 -0.4,-2.1 -0.51,-2.9 -0.11,-0.8 -0.28,-1.65 -0.51,-2.56 -0.23,-0.68 -0.46,-1.36 -0.68,-2.05 -0.23,-0.68 -0.46,-1.36 -0.68,-2.05 0,-0.23 -0.06,-0.45 -0.17,-0.68 -0.11,-0.23 -0.17,-0.46 -0.17,-0.68 -0.23,-0.23 -0.34,-0.57 -0.34,-1.02 -0.23,-0.23 -0.34,-0.45 -0.34,-0.68l-0.34 0 0.34 0.68 0 1.37 0 1.36c0.23,0.68 0.34,2.05 0.34,4.1l0 1.36 0 1.37 0 2.73 0 6.14 0 3.41 0 2.05 0 1.71 0 3.75 0 1.71 0 2.05c-0.23,1.36 -0.34,2.67 -0.34,3.92 0,1.25 0,2.56 0,3.92l0 1.71 0 2.05c-0.23,0.91 -0.34,2.16 -0.34,3.75 0,1.82 -0.11,3.07 -0.34,3.75l0 3.75c-0.23,1.14 -0.4,2.33 -0.51,3.58 -0.11,1.25 -0.17,2.45 -0.17,3.58 -0.23,0.23 -0.34,0.68 -0.34,1.37 0,0.91 -0.11,1.48 -0.34,1.71l0 1.71c0,0.23 -0.06,0.4 -0.17,0.51 -0.11,0.11 -0.17,0.4 -0.17,0.85 0,0.68 -0.11,1.14 -0.34,1.37l0 1.36c-0.23,0.23 -0.34,0.68 -0.34,1.36 0,0.23 -0.06,0.4 -0.17,0.51 -0.11,0.11 -0.17,0.28 -0.17,0.51 0,0.45 -0.11,0.8 -0.34,1.02 0,0.46 -0.11,0.8 -0.34,1.02l0 1.02c-0.23,0.23 -0.34,0.57 -0.34,1.02 -0.23,0.23 -0.34,0.45 -0.34,0.68 0,0.23 -0.11,0.46 -0.34,0.68 0,0.23 -0.06,0.4 -0.17,0.51 -0.11,0.11 -0.17,0.28 -0.17,0.51l-0.34 0.68 0.34 0c0,0 0.11,-0.23 0.34,-0.68l0.68 -0.68c0.45,-0.46 0.68,-0.91 0.68,-1.37 0.45,-0.45 0.68,-0.68 0.68,-0.68 0,-0.23 0.06,-0.4 0.17,-0.51 0.11,-0.11 0.17,-0.28 0.17,-0.51 0.23,-0.23 0.34,-0.4 0.34,-0.51 0,-0.11 0.11,-0.28 0.34,-0.51 0,-0.23 0.06,-0.4 0.17,-0.51 0.11,-0.11 0.17,-0.28 0.17,-0.51 0.23,-0.45 0.4,-0.85 0.51,-1.19 0.11,-0.34 0.28,-0.74 0.51,-1.19 0.23,-0.23 0.34,-0.46 0.34,-0.68 0,-0.23 0.11,-0.46 0.34,-0.68 0,-0.23 0.06,-0.45 0.17,-0.68 0.11,-0.23 0.17,-0.46 0.17,-0.68 0.45,-0.91 0.68,-1.36 0.68,-1.36 0,-0.68 0.11,-1.25 0.34,-1.71 0,-0.23 0.06,-0.46 0.17,-0.68 0.11,-0.23 0.17,-0.57 0.17,-1.02 0.23,-0.23 0.34,-0.68 0.34,-1.36 0.45,-1.14 0.74,-2.33 0.85,-3.58 0.11,-1.25 0.28,-2.45 0.51,-3.58 0.45,-1.14 0.68,-2.39 0.68,-3.75 0,-1.37 0.11,-2.73 0.34,-4.1 0.23,-1.14 0.34,-2.39 0.34,-3.75 0,-1.37 0.11,-2.73 0.34,-4.1l0 -7.85z"/>
 </g>
</svg>
